<svg width="21" height="21" viewBox="0 0 21 21" fill="none" xmlns="http://www.w3.org/2000/svg">
<g clip-path="url(#clip0_7_513)">
<path d="M20.9432 10.4248C20.9432 4.8804 16.4485 0.385742 10.9041 0.385742C5.35965 0.385742 0.86499 4.8804 0.86499 10.4248C0.86499 15.4357 4.53615 19.5889 9.33549 20.342V13.3268H6.78649V10.4248H9.33549V8.21311C9.33549 5.69705 10.8343 4.30727 13.1274 4.30727C14.2258 4.30727 15.3746 4.50334 15.3746 4.50334V6.97391H14.1087C12.8616 6.97391 12.4727 7.74775 12.4727 8.54168V10.4248H15.257L14.8119 13.3268H12.4727V20.342C17.272 19.5889 20.9432 15.4357 20.9432 10.4248Z" fill="#1877F2"/>
<path d="M14.8118 13.3266L15.2569 10.4247H12.4726V8.54154C12.4726 7.74761 12.8615 6.97377 14.1086 6.97377H15.3745V4.50321C15.3745 4.50321 14.2257 4.30713 13.1273 4.30713C10.8341 4.30713 9.33537 5.69691 9.33537 8.21297V10.4247H6.78638V13.3266H9.33537V20.3418C10.3748 20.5045 11.4332 20.5045 12.4726 20.3418V13.3266H14.8118Z" fill="white"/>
</g>
<defs>
<clipPath id="clip0_7_513">
<rect width="20.0782" height="20.0782" fill="white" transform="translate(0.86499 0.385742)"/>
</clipPath>
</defs>
</svg>
