<svg width="18" height="19" viewBox="0 0 18 19" fill="none" xmlns="http://www.w3.org/2000/svg">
<path d="M9.1235 8.19229H17.2467C17.3363 8.69276 17.3811 9.17081 17.3811 9.62645C17.3811 11.2473 17.0413 12.6946 16.3615 13.9681C15.6818 15.2417 14.7126 16.237 13.454 16.9541C12.1954 17.6712 10.7519 18.0297 9.1235 18.0297C7.95078 18.0297 6.83408 17.8038 5.7734 17.3519C4.71272 16.9 3.7977 16.2893 3.02833 15.5199C2.25897 14.7506 1.64833 13.8356 1.19642 12.7749C0.744509 11.7142 0.518555 10.5975 0.518555 9.42477C0.518555 8.25205 0.744509 7.13535 1.19642 6.07467C1.64833 5.01399 2.25897 4.09897 3.02833 3.3296C3.7977 2.56024 4.71272 1.9496 5.7734 1.49769C6.83408 1.04578 7.95078 0.819824 9.1235 0.819824C11.3644 0.819824 13.2878 1.57052 14.8937 3.0719L12.552 5.32398C11.6333 4.4351 10.4904 3.99066 9.1235 3.99066C8.15993 3.99066 7.26918 4.23342 6.45126 4.71894C5.63335 5.20446 4.98536 5.86365 4.50731 6.69651C4.02925 7.52937 3.79023 8.43879 3.79023 9.42477C3.79023 10.4108 4.02925 11.3202 4.50731 12.153C4.98536 12.9859 5.63335 13.6451 6.45126 14.1306C7.26918 14.6161 8.15993 14.8589 9.1235 14.8589C9.77336 14.8589 10.3709 14.7693 10.9162 14.59C11.4615 14.4107 11.9097 14.1866 12.2607 13.9177C12.6118 13.6488 12.918 13.3426 13.1795 12.999C13.4409 12.6554 13.6333 12.3304 13.7565 12.0242C13.8798 11.7179 13.9638 11.4266 14.0086 11.1502H9.1235V8.19229Z" fill="white"/>
</svg>
