<svg width="21" height="15" viewBox="0 0 21 15" fill="none" xmlns="http://www.w3.org/2000/svg">
<path d="M2.54686 9.68796C2.54686 10.4628 2.71686 11.0576 2.93921 11.4175C3.23067 11.8889 3.66535 12.089 4.10853 12.089C4.68006 12.089 5.20296 11.9471 6.21061 10.5534C7.01809 9.43637 7.96914 7.86841 8.60917 6.88541L9.69307 5.22004C10.446 4.06347 11.3175 2.77779 12.3167 1.90631C13.1327 1.19496 14.0124 0.799805 14.898 0.799805C16.3849 0.799805 17.8011 1.66143 18.885 3.27741C20.0712 5.04715 20.647 7.2764 20.647 9.57678C20.647 10.9444 20.3775 11.9492 19.9187 12.7431C19.4757 13.5108 18.6119 14.2779 17.1589 14.2779V12.0886C18.4031 12.0886 18.7135 10.9454 18.7135 9.63713C18.7135 7.77278 18.2788 5.70385 17.3212 4.22548C16.6417 3.17686 15.7611 2.53614 14.7922 2.53614C13.7442 2.53614 12.901 3.32662 11.9532 4.73564C11.4494 5.48438 10.9322 6.39675 10.3514 7.42633L9.71202 8.55893C8.42787 10.8365 8.1025 11.3549 7.46034 12.2107C6.33488 13.7094 5.37372 14.2776 4.10853 14.2776C2.60755 14.2776 1.65846 13.6276 1.07062 12.6482C0.590802 11.8501 0.355103 10.8029 0.355103 9.60968L2.54686 9.68796Z" fill="white"/>
<path d="M2.0833 3.43194C3.08814 1.88302 4.53829 0.799805 6.20154 0.799805C7.16473 0.799805 8.12249 1.08489 9.12224 1.90138C10.216 2.79386 11.3817 4.26432 12.8361 6.68676L13.3576 7.55587C14.6165 9.65311 15.3327 10.7321 15.7519 11.2409C16.291 11.8943 16.6685 12.0891 17.159 12.0891C18.4031 12.0891 18.7135 10.9458 18.7135 9.63756L20.647 9.57687C20.647 10.9445 20.3775 11.9493 19.9188 12.7432C19.4757 13.5109 18.6119 14.278 17.159 14.278C16.2557 14.278 15.4555 14.0818 14.5706 13.247C13.8906 12.6063 13.095 11.4681 12.4832 10.4449L10.6633 7.40491C9.75029 5.87928 8.91238 4.74176 8.42789 4.22658C7.90634 3.67257 7.23596 3.00363 6.16618 3.00363C5.30039 3.00363 4.56507 3.6112 3.94977 4.54057L2.0833 3.43194Z" fill="white"/>
<path d="M6.16607 3.00363C5.30028 3.00363 4.56496 3.6112 3.94966 4.54057C3.07954 5.85379 2.54719 7.80984 2.54719 9.6883C2.54719 10.4631 2.71719 11.058 2.93954 11.4178L1.07052 12.6485C0.59071 11.8505 0.355011 10.8032 0.355011 9.61002C0.355011 7.4401 0.950592 5.17848 2.08319 3.43194C3.08804 1.88302 4.53819 0.799805 6.20143 0.799805L6.16607 3.00363Z" fill="white"/>
</svg>
