<svg width="29" height="21" viewBox="0 0 29 21" fill="none" xmlns="http://www.w3.org/2000/svg">
<path d="M28.249 20.3123C28.249 20.6136 28.0278 20.8158 27.7659 20.8158V20.814C27.4966 20.8158 27.2794 20.6136 27.2794 20.3124C27.2794 20.0112 27.4966 19.8096 27.7659 19.8096C28.0279 19.8095 28.249 20.0112 28.249 20.3123ZM28.445 20.3123C28.445 19.8988 28.1238 19.6587 27.7659 19.6587C27.4055 19.6587 27.0843 19.8988 27.0843 20.3123C27.0843 20.7255 27.4056 20.9665 27.7659 20.9665C28.1238 20.9665 28.445 20.7255 28.445 20.3123ZM27.6532 20.3676H27.7259L27.8944 20.6634H28.0794L27.8928 20.3551C27.9892 20.3482 28.0685 20.3024 28.0685 20.1726C28.0685 20.0112 27.9572 19.9594 27.7689 19.9594H27.4964V20.6634H27.6531L27.6532 20.3676ZM27.6532 20.2484V20.0789H27.7622C27.8215 20.0789 27.9023 20.0837 27.9023 20.156C27.9023 20.2346 27.8605 20.2484 27.7906 20.2484H27.6532ZM23.8716 16.7105L24.7184 19.0268H22.9987L23.8716 16.7105ZM22.9648 15.8085L21.0135 20.7524H22.3913L22.7 19.8788H25.0092L25.3013 20.7524H26.7971L24.8312 15.8079L22.9648 15.8085ZM19.0473 20.7543H20.4452V15.807L19.0471 15.8067L19.0473 20.7543ZM9.34266 15.8067L8.17635 19.7278L7.0591 15.807L5.55075 15.8067L7.14642 20.7543H9.16034L10.7689 15.8067H9.34266ZM14.9933 16.884H15.5942C16.4657 16.884 17.0295 17.2753 17.0295 18.2909C17.0295 19.3066 16.4657 19.698 15.5942 19.698H14.9933V16.884ZM13.6071 15.8067V20.7543H15.8733C17.0808 20.7543 17.4751 20.5536 17.9014 20.1034C18.2026 19.7872 18.3974 19.0933 18.3974 18.335C18.3974 17.6393 18.2325 17.0192 17.9451 16.6328C17.4274 15.9419 16.6815 15.8067 15.5683 15.8067H13.6071ZM0.36499 15.7998V20.7543H1.77474V16.9923L2.86707 16.9926C3.22876 16.9926 3.48658 17.0828 3.66075 17.2688C3.88166 17.5041 3.97186 17.884 3.97186 18.5788V20.7543H5.33791V18.0169C5.33791 16.0632 4.09266 15.7998 2.87426 15.7998H0.36499ZM11.3572 15.8067L11.3578 20.7543H12.7551V15.8067H11.3572Z" fill="#2C2C2C"/>
<path d="M4.12204 5.95478C4.12204 5.95478 5.92 3.30201 9.50994 3.02757V2.06515C5.53363 2.38449 2.0903 5.75224 2.0903 5.75224C2.0903 5.75224 4.04055 11.39 9.50994 11.9063V10.8833C5.49624 10.3783 4.12204 5.95478 4.12204 5.95478ZM9.50994 8.84882V9.78575C6.47647 9.24486 5.63446 6.09164 5.63446 6.09164C5.63446 6.09164 7.09095 4.47815 9.50994 4.21649V5.24451C9.5081 5.24451 9.50682 5.24395 9.5053 5.24395C8.23569 5.09159 7.24387 6.27763 7.24387 6.27763C7.24387 6.27763 7.79978 8.27422 9.50994 8.84882ZM9.50994 0.290039V2.06515C9.62666 2.0562 9.74339 2.04861 9.86076 2.04462C14.3814 1.89226 17.3269 5.75224 17.3269 5.75224C17.3269 5.75224 13.9439 9.86589 10.4194 9.86589C10.0964 9.86589 9.79396 9.83593 9.50994 9.78559V10.8833C9.76115 10.9156 10.0141 10.9319 10.2674 10.9322C13.5472 10.9322 15.9191 9.25717 18.2157 7.27472C18.5965 7.57969 20.1554 8.32159 20.4759 8.64629C18.2922 10.4746 13.2029 11.9484 10.3177 11.9484C10.0396 11.9484 9.77247 11.9316 9.50994 11.9063V13.4486H21.9762V0.290039H9.50994ZM9.50994 4.21649V3.02757C9.62547 3.0195 9.74187 3.01335 9.86076 3.0096C13.1115 2.90749 15.2443 5.80313 15.2443 5.80313C15.2443 5.80313 12.9407 9.0023 10.4708 9.0023C10.1154 9.0023 9.79668 8.94518 9.50986 8.84874V5.24443C10.7754 5.39735 11.0301 5.95637 11.7909 7.22471L13.4832 5.79786C13.4832 5.79786 12.2479 4.17782 10.1656 4.17782C9.93921 4.17774 9.72262 4.19372 9.50994 4.21649Z" fill="#2C2C2C"/>
</svg>
