<svg width="28" height="46" viewBox="0 0 28 46" fill="none" xmlns="http://www.w3.org/2000/svg">
<path d="M18.8805 27.1811L21.0977 27.4138V45.4609L14.9734 38.9214V28.5175L16.7521 29.3861L18.8805 27.1811ZM9.11973 27.1811L6.90137 27.4138V45.4609L13.0255 38.9214V28.5175L11.2469 29.3861L9.11973 27.1811ZM25.9146 15.8744L26.6321 18.3719L24.4783 19.824L24.298 22.4188L21.7774 23.0463L20.7225 25.4207L18.1385 25.1478L16.3343 27.0117L14.0001 25.8714L11.6659 27.0117L9.86172 25.1416L7.27773 25.4146L6.22275 23.0402L3.70225 22.4188L3.52188 19.8276L1.36191 18.3706L2.07949 15.8732L0.556641 13.7693L2.08438 11.6678L1.36191 9.17529L3.51699 7.72314L3.69736 5.13184L6.22275 4.51055L7.27773 2.13623L9.86172 2.40908L11.6659 0.539062L14.0001 1.67939L16.3343 0.539062L18.1385 2.40908L20.7225 2.13623L21.7774 4.51055L24.298 5.13799L24.4783 7.7292L26.6321 9.18135L25.9146 11.6788L27.4436 13.7693L25.9146 15.8744ZM21.1086 13.7693C21.1086 12.374 20.6948 11.01 19.9196 9.84985C19.1444 8.68968 18.0426 7.78544 16.7535 7.25147C15.4644 6.71751 14.0459 6.5778 12.6774 6.85001C11.3089 7.12222 10.0518 7.79414 9.06516 8.78078C8.07851 9.76742 7.4066 11.0245 7.13439 12.393C6.86217 13.7615 7.00188 15.18 7.53585 16.4691C8.06982 17.7582 8.97406 18.8601 10.1342 19.6353C11.2944 20.4105 12.6584 20.8242 14.0537 20.8242C15.9239 20.8213 17.7166 20.0771 19.039 18.7547C20.3615 17.4323 21.1057 15.6395 21.1086 13.7693ZM14.0537 8.66357C13.0439 8.66357 12.0568 8.96301 11.2172 9.52403C10.3775 10.085 9.72314 10.8824 9.3367 11.8154C8.95026 12.7483 8.84915 13.7749 9.04614 14.7653C9.24314 15.7557 9.7294 16.6654 10.4434 17.3795C11.1575 18.0935 12.0672 18.5798 13.0576 18.7768C14.048 18.9738 15.0746 18.8727 16.0075 18.4863C16.9404 18.0999 17.7378 17.4455 18.2989 16.6059C18.8599 15.7663 19.1594 14.7791 19.1594 13.7693C19.1555 12.4168 18.6162 11.1207 17.6595 10.1646C16.7027 9.20855 15.4063 8.6702 14.0537 8.66728V8.66357Z" fill="#4880FF"/>
</svg>
