<svg width="78" height="78" viewBox="0 0 78 78" fill="none" xmlns="http://www.w3.org/2000/svg">
<path d="M44.6995 48.6016L44.3147 61.8431C44.3025 62.2325 44.1713 62.6089 43.9389 62.9216C43.7066 63.2343 43.384 63.4684 43.0147 63.5925C42.6453 63.7165 42.2469 63.7246 41.8728 63.6155C41.4988 63.5065 41.1671 63.2856 40.9223 62.9825L32.6225 52.6578C32.4473 52.4399 32.2269 52.2626 31.9765 52.1381C31.7262 52.0136 31.4518 51.945 31.1723 51.9368L17.9308 51.552C17.5414 51.5398 17.165 51.4086 16.8523 51.1762C16.5396 50.9439 16.3055 50.6213 16.1814 50.252C16.0574 49.8826 16.0493 49.4842 16.1584 49.1101C16.2674 48.7361 16.4883 48.4044 16.7914 48.1596L27.1161 39.8598C27.334 39.6846 27.5113 39.4642 27.6358 39.2138C27.7603 38.9635 27.8289 38.6891 27.837 38.4096L28.2219 25.1681C28.2341 24.7787 28.3653 24.4023 28.5976 24.0896C28.83 23.7769 29.1526 23.5428 29.5219 23.4187C29.8913 23.2947 30.2897 23.2866 30.6638 23.3957C31.0378 23.5047 31.3695 23.7256 31.6143 24.0287L39.9141 34.3534C40.0893 34.5713 40.3097 34.7486 40.56 34.8731C40.8104 34.9976 41.0848 35.0662 41.3643 35.0743L54.6058 35.4592C54.9952 35.4714 55.3716 35.6026 55.6843 35.8349C55.997 36.0673 56.2311 36.3899 56.3552 36.7592C56.4792 37.1286 56.4873 37.527 56.3782 37.9011C56.2692 38.2751 56.0483 38.6068 55.7452 38.8516L45.4205 47.1514C45.2026 47.3266 45.0253 47.547 44.9008 47.7973C44.7763 48.0477 44.7077 48.3221 44.6995 48.6016V48.6016Z" fill="#0075FD"/>
<path d="M41.02 9.69537L44.666 20.5512" stroke="#0075FD" stroke-width="2.25" stroke-linecap="round" stroke-linejoin="round"/>
<path d="M48.2709 13.3002L37.4151 16.9462" stroke="#0075FD" stroke-width="2.25" stroke-linecap="round" stroke-linejoin="round"/>
<path d="M56.1295 18.7144L58.5601 25.9516" stroke="#0075FD" stroke-width="2.25" stroke-linecap="round" stroke-linejoin="round"/>
<path d="M60.9634 21.1177L53.7262 23.5484" stroke="#0075FD" stroke-width="2.25" stroke-linecap="round" stroke-linejoin="round"/>
</svg>
