<svg width="41" height="41" viewBox="0 0 41 41" fill="none" xmlns="http://www.w3.org/2000/svg">
<path d="M28.6995 25.6016L28.3147 38.8431C28.3025 39.2325 28.1713 39.6089 27.9389 39.9216C27.7066 40.2343 27.384 40.4684 27.0147 40.5925C26.6453 40.7165 26.2469 40.7246 25.8728 40.6155C25.4988 40.5065 25.1671 40.2856 24.9223 39.9825L16.6225 29.6578C16.4473 29.4399 16.2269 29.2626 15.9765 29.1381C15.7262 29.0136 15.4518 28.945 15.1723 28.9368L1.9308 28.552C1.54137 28.5398 1.16502 28.4086 0.852295 28.1762C0.539572 27.9439 0.305462 27.6213 0.181414 27.252C0.0573668 26.8826 0.0493251 26.4842 0.158369 26.1101C0.267414 25.7361 0.48832 25.4044 0.791412 25.1596L11.1161 16.8598C11.334 16.6846 11.5113 16.4642 11.6358 16.2138C11.7603 15.9635 11.8289 15.6891 11.837 15.4096L12.2219 2.1681C12.2341 1.77867 12.3653 1.40232 12.5976 1.08959C12.83 0.776872 13.1526 0.542761 13.5219 0.418714C13.8913 0.294666 14.2897 0.286625 14.6638 0.395669C15.0378 0.504713 15.3695 0.72562 15.6143 1.02871L23.9141 11.3534C24.0893 11.5713 24.3097 11.7486 24.56 11.8731C24.8104 11.9976 25.0848 12.0662 25.3643 12.0743L38.6058 12.4592C38.9952 12.4714 39.3716 12.6026 39.6843 12.8349C39.997 13.0673 40.2311 13.3899 40.3552 13.7592C40.4792 14.1286 40.4873 14.527 40.3782 14.9011C40.2692 15.2751 40.0483 15.6068 39.7452 15.8516L29.4205 24.1514C29.2026 24.3266 29.0253 24.547 28.9008 24.7973C28.7763 25.0477 28.7077 25.3221 28.6995 25.6016V25.6016Z" fill="#0075FD"/>
</svg>
