<svg width="24" height="25" viewBox="0 0 24 25" fill="none" xmlns="http://www.w3.org/2000/svg">
<path d="M12.4125 18.4001L17.1375 21.4001C17.7469 21.7845 18.4969 21.2126 18.3187 20.5095L16.95 15.1282C16.913 14.9791 16.9189 14.8225 16.967 14.6765C17.0151 14.5306 17.1034 14.4012 17.2219 14.3032L21.4594 10.7689C22.0125 10.3095 21.7312 9.38137 21.0094 9.3345L15.4781 8.97825C15.3272 8.96946 15.1821 8.91691 15.0606 8.82701C14.939 8.7371 14.8463 8.61374 14.7937 8.472L12.7312 3.27825C12.6767 3.12815 12.5772 2.9985 12.4464 2.90688C12.3156 2.81526 12.1597 2.76611 12 2.76611C11.8403 2.76611 11.6844 2.81526 11.5536 2.90688C11.4228 2.9985 11.3233 3.12815 11.2687 3.27825L9.20625 8.472C9.15368 8.61374 9.06096 8.7371 8.93943 8.82701C8.81789 8.91691 8.67279 8.96946 8.52187 8.97825L2.99062 9.3345C2.26875 9.38137 1.9875 10.3095 2.54062 10.7689L6.77812 14.3032C6.89656 14.4012 6.98492 14.5306 7.03302 14.6765C7.08112 14.8225 7.08701 14.9791 7.05 15.1282L5.78437 20.1157C5.56875 20.9595 6.46875 21.6439 7.19062 21.1845L11.5875 18.4001C11.7108 18.3217 11.8539 18.2801 12 18.2801C12.1461 18.2801 12.2892 18.3217 12.4125 18.4001Z" fill="#20B486" stroke="#20B486" stroke-width="1.5" stroke-linecap="round" stroke-linejoin="round"/>
</svg>
