<svg width="34" height="34" viewBox="0 0 34 34" fill="none" xmlns="http://www.w3.org/2000/svg">
<path d="M22.991 21.426L21.5453 32.3889C21.5087 32.6524 21.3925 32.8984 21.212 33.0938C21.0316 33.2893 20.7957 33.4248 20.5359 33.4823C20.2762 33.5397 20.0051 33.5163 19.7591 33.4152C19.5131 33.314 19.3039 33.14 19.1596 32.9165L13.2258 23.5856C13.1226 23.425 12.9859 23.2886 12.8249 23.186C12.664 23.0833 12.4827 23.0168 12.2935 22.9911L1.33059 21.5454C1.06711 21.5089 0.821113 21.3926 0.625657 21.2121C0.430201 21.0317 0.294646 20.7958 0.237204 20.5361C0.179762 20.2763 0.203184 20.0052 0.304324 19.7592C0.405463 19.5132 0.579475 19.304 0.802982 19.1598L10.1338 13.2259C10.2945 13.1228 10.4308 12.986 10.5335 12.8251C10.6361 12.6641 10.7026 12.4828 10.7284 12.2936L12.1741 1.33071C12.2106 1.06723 12.3269 0.821234 12.5073 0.625778C12.6878 0.430322 12.9237 0.294767 13.1834 0.237325C13.4432 0.179883 13.7143 0.203305 13.9603 0.304445C14.2063 0.405584 14.4155 0.579596 14.5597 0.803104L20.4936 10.134C20.5967 10.2946 20.7335 10.431 20.8944 10.5336C21.0554 10.6363 21.2367 10.7028 21.4258 10.7285L32.3888 12.1742C32.6523 12.2107 32.8983 12.327 33.0937 12.5075C33.2892 12.6879 33.4247 12.9238 33.4822 13.1836C33.5396 13.4433 33.5162 13.7144 33.415 13.9604C33.3139 14.2064 33.1399 14.4156 32.9164 14.5598L23.5855 20.4937C23.4249 20.5969 23.2885 20.7336 23.1859 20.8946C23.0832 21.0555 23.0167 21.2368 22.991 21.426V21.426Z" fill="#FFC27A"/>
</svg>
