<svg width="22" height="22" viewBox="0 0 22 22" fill="none" xmlns="http://www.w3.org/2000/svg">
<path d="M13.8781 14.3281L11.7031 20.3094C11.6498 20.4529 11.5539 20.5767 11.4282 20.6641C11.3025 20.7515 11.1531 20.7984 11 20.7984C10.8469 20.7984 10.6974 20.7515 10.5718 20.6641C10.4461 20.5767 10.3501 20.4529 10.2969 20.3094L8.12186 14.3281C8.08387 14.225 8.02397 14.1314 7.94627 14.0537C7.86858 13.976 7.77496 13.9161 7.67186 13.8781L1.69061 11.7031C1.54708 11.6498 1.42329 11.5539 1.33587 11.4282C1.24845 11.3025 1.2016 11.1531 1.2016 11C1.2016 10.8469 1.24845 10.6974 1.33587 10.5718C1.42329 10.4461 1.54708 10.3501 1.69061 10.2969L7.67186 8.12186C7.77496 8.08387 7.86858 8.02397 7.94627 7.94627C8.02397 7.86858 8.08387 7.77496 8.12186 7.67186L10.2969 1.69061C10.3501 1.54708 10.4461 1.42329 10.5718 1.33587C10.6974 1.24845 10.8469 1.2016 11 1.2016C11.1531 1.2016 11.3025 1.24845 11.4282 1.33587C11.5539 1.42329 11.6498 1.54708 11.7031 1.69061L13.8781 7.67186C13.9161 7.77496 13.976 7.86858 14.0537 7.94627C14.1314 8.02397 14.225 8.08387 14.3281 8.12186L20.3094 10.2969C20.4529 10.3501 20.5767 10.4461 20.6641 10.5718C20.7515 10.6974 20.7984 10.8469 20.7984 11C20.7984 11.1531 20.7515 11.3025 20.6641 11.4282C20.5767 11.5539 20.4529 11.6498 20.3094 11.7031L14.3281 13.8781C14.225 13.9161 14.1314 13.976 14.0537 14.0537C13.976 14.1314 13.9161 14.225 13.8781 14.3281V14.3281Z" stroke="#FFC27A" stroke-width="1.5" stroke-linecap="round" stroke-linejoin="round"/>
</svg>
