<svg width="647" height="463" viewBox="0 0 647 463" fill="none" xmlns="http://www.w3.org/2000/svg">
<path d="M128.164 320.333V311.205H171.17V320.333H155.139V363.569H144.196V320.333H128.164ZM190.25 364.336C186.211 364.336 182.733 363.518 179.819 361.881C176.921 360.228 174.688 357.893 173.12 354.876C171.551 351.842 170.767 348.254 170.767 344.111C170.767 340.072 171.551 336.526 173.12 333.475C174.688 330.424 176.895 328.046 179.742 326.342C182.605 324.637 185.963 323.785 189.816 323.785C192.407 323.785 194.819 324.202 197.051 325.038C199.301 325.856 201.262 327.092 202.932 328.745C204.62 330.398 205.932 332.478 206.87 334.984C207.807 337.472 208.276 340.387 208.276 343.728V346.719H175.114V339.969H198.023C198.023 338.401 197.682 337.012 197 335.802C196.319 334.592 195.372 333.646 194.162 332.964C192.969 332.265 191.58 331.915 189.995 331.915C188.341 331.915 186.875 332.299 185.597 333.066C184.336 333.816 183.347 334.83 182.631 336.109C181.915 337.37 181.549 338.776 181.532 340.327V346.745C181.532 348.688 181.89 350.367 182.605 351.782C183.338 353.197 184.37 354.288 185.699 355.055C187.029 355.822 188.605 356.205 190.429 356.205C191.64 356.205 192.747 356.035 193.753 355.694C194.759 355.353 195.62 354.842 196.336 354.16C197.051 353.478 197.597 352.643 197.972 351.654L208.046 352.319C207.534 354.739 206.486 356.853 204.901 358.66C203.333 360.45 201.304 361.847 198.816 362.853C196.344 363.842 193.489 364.336 190.25 364.336ZM226.583 364.31C224.077 364.31 221.844 363.876 219.884 363.006C217.924 362.12 216.372 360.816 215.23 359.094C214.105 357.356 213.543 355.191 213.543 352.6C213.543 350.418 213.944 348.586 214.745 347.103C215.546 345.62 216.637 344.427 218.017 343.523C219.398 342.62 220.966 341.938 222.722 341.478C224.495 341.018 226.353 340.694 228.296 340.506C230.58 340.268 232.421 340.046 233.819 339.842C235.216 339.62 236.23 339.296 236.861 338.87C237.492 338.444 237.807 337.813 237.807 336.978V336.825C237.807 335.205 237.296 333.952 236.273 333.066C235.267 332.18 233.836 331.736 231.978 331.736C230.017 331.736 228.458 332.171 227.299 333.04C226.14 333.893 225.372 334.967 224.997 336.262L214.924 335.444C215.435 333.057 216.441 330.995 217.941 329.256C219.441 327.501 221.375 326.154 223.745 325.217C226.131 324.262 228.892 323.785 232.029 323.785C234.211 323.785 236.299 324.04 238.293 324.552C240.304 325.063 242.086 325.856 243.637 326.93C245.205 328.004 246.441 329.384 247.344 331.072C248.247 332.742 248.699 334.745 248.699 337.08V363.569H238.37V358.123H238.063C237.432 359.35 236.588 360.432 235.532 361.37C234.475 362.29 233.205 363.015 231.722 363.543C230.239 364.055 228.526 364.31 226.583 364.31ZM229.702 356.793C231.304 356.793 232.719 356.478 233.946 355.847C235.174 355.2 236.137 354.33 236.836 353.239C237.534 352.148 237.884 350.913 237.884 349.532V345.364C237.543 345.586 237.074 345.79 236.478 345.978C235.898 346.148 235.242 346.31 234.509 346.464C233.776 346.6 233.043 346.728 232.31 346.847C231.577 346.95 230.912 347.043 230.316 347.129C229.037 347.316 227.921 347.614 226.966 348.023C226.012 348.432 225.27 348.986 224.742 349.685C224.213 350.367 223.949 351.219 223.949 352.242C223.949 353.725 224.486 354.859 225.56 355.643C226.651 356.41 228.032 356.793 229.702 356.793ZM257.149 363.569V324.296H267.53V331.225H267.99C268.809 328.924 270.172 327.109 272.081 325.779C273.99 324.45 276.274 323.785 278.934 323.785C281.627 323.785 283.919 324.458 285.811 325.805C287.703 327.134 288.965 328.941 289.596 331.225H290.005C290.806 328.975 292.255 327.177 294.351 325.83C296.465 324.467 298.962 323.785 301.843 323.785C305.507 323.785 308.482 324.952 310.766 327.288C313.067 329.606 314.218 332.896 314.218 337.157V363.569H303.351V339.305C303.351 337.123 302.772 335.486 301.613 334.396C300.453 333.305 299.005 332.759 297.266 332.759C295.289 332.759 293.746 333.39 292.638 334.651C291.53 335.896 290.976 337.54 290.976 339.586V363.569H280.417V339.075C280.417 337.148 279.863 335.614 278.755 334.472C277.664 333.33 276.223 332.759 274.434 332.759C273.223 332.759 272.132 333.066 271.161 333.68C270.206 334.276 269.448 335.12 268.885 336.211C268.323 337.285 268.042 338.546 268.042 339.995V363.569H257.149ZM368.096 326.265C367.892 324.202 367.014 322.6 365.463 321.458C363.912 320.316 361.806 319.745 359.147 319.745C357.341 319.745 355.815 320.001 354.571 320.512C353.326 321.006 352.372 321.697 351.707 322.583C351.059 323.469 350.735 324.475 350.735 325.6C350.701 326.538 350.897 327.356 351.323 328.055C351.767 328.754 352.372 329.359 353.139 329.87C353.906 330.364 354.792 330.799 355.798 331.174C356.804 331.532 357.877 331.839 359.02 332.094L363.724 333.219C366.008 333.731 368.105 334.413 370.014 335.265C371.923 336.117 373.576 337.165 374.974 338.41C376.372 339.654 377.454 341.12 378.221 342.807C379.005 344.495 379.406 346.43 379.423 348.611C379.406 351.816 378.588 354.594 376.968 356.947C375.366 359.282 373.048 361.097 370.014 362.393C366.997 363.671 363.358 364.31 359.096 364.31C354.869 364.31 351.187 363.663 348.051 362.367C344.931 361.072 342.494 359.154 340.738 356.614C339 354.057 338.088 350.896 338.002 347.129H348.716C348.835 348.884 349.338 350.35 350.224 351.526C351.127 352.685 352.329 353.563 353.829 354.16C355.346 354.739 357.059 355.029 358.968 355.029C360.843 355.029 362.471 354.756 363.852 354.211C365.25 353.665 366.332 352.907 367.099 351.935C367.866 350.964 368.25 349.847 368.25 348.586C368.25 347.41 367.9 346.421 367.201 345.62C366.52 344.819 365.514 344.137 364.184 343.575C362.872 343.012 361.261 342.501 359.352 342.04L353.65 340.609C349.235 339.535 345.75 337.856 343.193 335.572C340.636 333.288 339.366 330.211 339.383 326.342C339.366 323.171 340.21 320.401 341.914 318.032C343.636 315.663 345.997 313.813 348.997 312.484C351.997 311.154 355.406 310.489 359.224 310.489C363.11 310.489 366.502 311.154 369.4 312.484C372.315 313.813 374.582 315.663 376.201 318.032C377.821 320.401 378.656 323.146 378.707 326.265H368.096ZM386.665 378.296V324.296H397.404V330.893H397.89C398.367 329.836 399.057 328.762 399.961 327.671C400.881 326.563 402.074 325.643 403.54 324.91C405.023 324.16 406.864 323.785 409.063 323.785C411.926 323.785 414.569 324.535 416.989 326.035C419.409 327.518 421.344 329.759 422.793 332.759C424.242 335.742 424.966 339.484 424.966 343.984C424.966 348.364 424.259 352.063 422.844 355.08C421.446 358.08 419.537 360.356 417.117 361.907C414.713 363.441 412.02 364.208 409.037 364.208C406.924 364.208 405.125 363.859 403.642 363.16C402.176 362.461 400.975 361.583 400.037 360.526C399.1 359.452 398.384 358.37 397.89 357.279H397.557V378.296H386.665ZM397.327 343.932C397.327 346.268 397.651 348.305 398.299 350.043C398.946 351.782 399.884 353.137 401.111 354.109C402.338 355.063 403.83 355.54 405.586 355.54C407.358 355.54 408.858 355.055 410.086 354.083C411.313 353.094 412.242 351.731 412.872 349.992C413.52 348.236 413.844 346.217 413.844 343.932C413.844 341.665 413.529 339.671 412.898 337.95C412.267 336.228 411.338 334.881 410.111 333.91C408.884 332.938 407.375 332.452 405.586 332.452C403.813 332.452 402.313 332.921 401.086 333.859C399.875 334.796 398.946 336.126 398.299 337.847C397.651 339.569 397.327 341.597 397.327 343.932ZM432.228 363.569V324.296H443.12V363.569H432.228ZM437.699 319.234C436.08 319.234 434.691 318.697 433.532 317.623C432.39 316.532 431.819 315.228 431.819 313.711C431.819 312.211 432.39 310.924 433.532 309.85C434.691 308.759 436.08 308.214 437.699 308.214C439.319 308.214 440.699 308.759 441.841 309.85C443 310.924 443.58 312.211 443.58 313.711C443.58 315.228 443 316.532 441.841 317.623C440.699 318.697 439.319 319.234 437.699 319.234ZM451.845 363.569V324.296H462.404V331.148H462.814C463.529 328.711 464.731 326.87 466.419 325.626C468.106 324.364 470.049 323.734 472.248 323.734C472.794 323.734 473.382 323.768 474.012 323.836C474.643 323.904 475.197 323.998 475.674 324.117V333.782C475.163 333.629 474.456 333.492 473.552 333.373C472.649 333.254 471.822 333.194 471.072 333.194C469.47 333.194 468.038 333.543 466.777 334.242C465.532 334.924 464.544 335.879 463.811 337.106C463.095 338.333 462.737 339.748 462.737 341.35V363.569H451.845ZM481.306 363.569V324.296H492.198V363.569H481.306ZM486.777 319.234C485.158 319.234 483.769 318.697 482.61 317.623C481.468 316.532 480.897 315.228 480.897 313.711C480.897 312.211 481.468 310.924 482.61 309.85C483.769 308.759 485.158 308.214 486.777 308.214C488.397 308.214 489.777 308.759 490.919 309.85C492.078 310.924 492.658 312.211 492.658 313.711C492.658 315.228 492.078 316.532 490.919 317.623C489.777 318.697 488.397 319.234 486.777 319.234ZM521.812 324.296V332.478H498.162V324.296H521.812ZM503.531 314.887H514.423V351.501C514.423 352.506 514.576 353.29 514.883 353.853C515.19 354.398 515.616 354.782 516.162 355.004C516.724 355.225 517.372 355.336 518.105 355.336C518.616 355.336 519.127 355.293 519.639 355.208C520.15 355.106 520.542 355.029 520.815 354.978L522.528 363.083C521.983 363.254 521.216 363.45 520.227 363.671C519.238 363.91 518.037 364.055 516.622 364.106C513.997 364.208 511.696 363.859 509.718 363.057C507.758 362.256 506.233 361.012 505.142 359.325C504.051 357.637 503.514 355.506 503.531 352.932V314.887Z" fill="black"/>
<path d="M388.485 319.655V333.203" stroke="black" stroke-width="2" stroke-linecap="round"/>
<path d="M260.412 135.539C257.377 132.857 258.267 132.255 257.41 128.044C257.05 126.278 257.233 124.282 257.233 122.486C257.233 118.016 257.959 113.662 258.453 109.24C258.664 107.356 259.351 105.863 260.412 104.363" stroke="black" stroke-width="2" stroke-linecap="round"/>
<path d="M262.56 96.8378C263.389 96.0427 264.685 94.6877 265.785 94.6877" stroke="black" stroke-width="2" stroke-linecap="round"/>
<path d="M269.011 91.4626C269.063 89.8306 269.14 88.251 269.696 86.7169C269.775 86.4989 269.847 86.1683 270.086 86.0874" stroke="black" stroke-width="2" stroke-linecap="round"/>
<path d="M272.237 85.0123C272.875 84.7067 273.486 84.3237 274.117 83.997C274.205 83.9512 274.293 83.9373 274.387 83.9373" stroke="black" stroke-width="2" stroke-linecap="round"/>
<path d="M275.463 81.7869C275.33 80.1043 274.887 78.49 274.654 76.8315C274.455 75.417 274.407 74.0091 274.404 72.5723C274.402 71.3551 274.322 70.0776 274.536 68.8865" stroke="black" stroke-width="2" stroke-linecap="round"/>
<path d="M275.462 64.5869C276.119 63.3947 277.246 62.5124 278.349 61.8664C278.803 61.6005 279.25 61.4183 279.763 61.3618" stroke="black" stroke-width="3.09322" stroke-linecap="round"/>
<path d="M285.137 61.3618C285.137 61.695 285.137 62.0299 285.137 62.4368" stroke="black" stroke-width="3.09322" stroke-linecap="round"/>
<path d="M290.51 64.5867C291.463 67.7869 291.585 71.0198 291.585 74.262" stroke="black" stroke-width="2" stroke-linecap="round"/>
<path d="M291.588 78.5623C291.039 79.4376 290.563 80.4282 289.932 81.1802C289.762 81.3832 289.592 81.5561 289.438 81.7874" stroke="black" stroke-width="2" stroke-linecap="round"/>
<path d="M279.764 83.9373C280.7 83.9373 281.638 83.9373 282.577 83.9373C283.072 83.9373 283.568 83.9373 284.063 83.9373C289.615 83.9373 282.246 83.9373 285.738 83.9373" stroke="black" stroke-width="2" stroke-linecap="round"/>
<path d="M292.661 82.8621C292.661 83.1376 292.661 83.5685 292.661 83.7517C292.661 83.8522 292.661 83.9142 292.661 83.9371" stroke="black" stroke-width="2" stroke-linecap="round"/>
<path d="M296.961 83.9373C297.239 82.5892 298.328 81.5894 299.204 80.4765C299.962 79.5131 300.569 78.4808 301.261 77.4871" stroke="black" stroke-width="2" stroke-linecap="round"/>
<path d="M302.337 73.1866C302.337 71.7345 302.337 70.3455 302.337 68.8865" stroke="black" stroke-width="3.09322" stroke-linecap="round"/>
<path d="M300.187 62.4366C299.898 61.3413 299.559 60.2646 299.26 59.1736C299.166 58.8305 299.132 58.4922 299.112 58.1365" stroke="black" stroke-width="3.09322" stroke-linecap="round"/>
<path d="M296.961 52.7612C298.341 52.3253 299.899 51.8578 301.098 51.0516C301.662 50.6721 301.992 50.0845 302.336 49.5361" stroke="black" stroke-width="3.09322" stroke-linecap="round"/>
<path d="M303.413 50.6113C303.567 51.1032 303.519 50.9939 303.819 51.6189C304.436 52.903 305.116 54.1523 305.784 55.4055C306.454 56.6625 307.1 57.9219 307.713 59.2116" stroke="black" stroke-width="3.09322" stroke-linecap="round"/>
<path d="M309.864 62.4365C310.969 65.2814 312.174 68.1011 313.089 71.0368" stroke="black" stroke-width="3.09322" stroke-linecap="round"/>
<path d="M313.089 73.187C312.805 75.502 311.849 77.7589 311.124 79.966C310.441 82.0413 309.601 84.0584 308.789 86.0874" stroke="black" stroke-width="2" stroke-linecap="round"/>
<path d="M306.638 90.3872C305.593 93.1034 303.802 95.4355 302.337 97.9124" stroke="black" stroke-width="2" stroke-linecap="round"/>
<path d="M302.347 98.9878C302.347 101.508 302.326 104.029 302.347 106.549C302.377 110.138 302.894 113.586 303.547 117.09C304.254 120.889 305.124 124.542 306.638 128.014" stroke="black" stroke-width="2" stroke-linecap="round"/>
<path d="M306.637 130.164C304.058 131.776 301.289 133.401 299.112 135.539" stroke="black" stroke-width="2" stroke-linecap="round"/>
<path d="M265.786 139.839C266.514 140.126 267.218 140.525 267.936 140.914" stroke="black" stroke-width="2" stroke-linecap="round"/>
<path d="M265.786 128.014C265.786 131.008 265.775 134.003 265.854 136.996C265.9 138.727 265.914 140.537 266.281 142.243C266.527 143.389 266.988 144.525 267.936 145.214" stroke="black" stroke-width="2" stroke-linecap="round"/>
<path d="M269.011 139.795C273.48 139.795 277.948 139.795 282.416 139.795C286.531 139.795 290.766 140.026 294.851 139.427C298.011 138.965 300.146 137.695 302.337 135.539" stroke="black" stroke-width="2" stroke-linecap="round"/>
<path d="M267.936 147.364C267.936 162.774 267.936 178.18 267.936 193.59" stroke="black" stroke-width="2" stroke-linecap="round"/>
<path d="M267.936 190.366C267.936 195.637 267.936 201.278 267.936 206.491" stroke="black" stroke-width="3.09322" stroke-linecap="round"/>
<path d="M270.086 210.791V218.316" stroke="black" stroke-width="3.09322" stroke-linecap="round"/>
<path d="M269.011 218.316C270.698 218.316 274.055 218.316 275.461 218.316" stroke="black" stroke-width="3.09322" stroke-linecap="round"/>
<path d="M276.538 208.641V215.091" stroke="black" stroke-width="3.09322" stroke-linecap="round"/>
<path d="M277.613 204.341C277.865 195.978 279.719 187.876 280.838 179.615" stroke="black" stroke-width="2" stroke-linecap="round"/>
<path d="M282.986 168.865C283.217 166.308 283.6 163.829 284.061 161.34" stroke="black" stroke-width="2" stroke-linecap="round"/>
<path d="M285.137 154.889C285.853 160.337 287.492 165.646 288.532 171.03C289.091 173.924 289.791 176.771 290.512 179.615" stroke="black" stroke-width="2" stroke-linecap="round"/>
<path d="M295.886 184.99C296.891 189.235 298.046 194.069 300.186 197.891" stroke="black" stroke-width="3.09322" stroke-linecap="round"/>
<path d="M302.337 204.341V210.791" stroke="black" stroke-width="3.09322" stroke-linecap="round"/>
<path d="M302.337 210.791C303.399 212.872 306.327 212.941 308.788 212.941" stroke="black" stroke-width="3.09322" stroke-linecap="round"/>
<path d="M308.789 208.641V212.941" stroke="black" stroke-width="3.09322" stroke-linecap="round"/>
<path d="M312.014 179.615V198.966" stroke="black" stroke-width="2" stroke-linecap="round"/>
<path d="M310.939 176.39C308.834 170.845 306.98 165.069 306.639 159.19" stroke="black" stroke-width="2" stroke-linecap="round"/>
<path d="M303.412 149.514C303.241 146.223 302.337 143.145 302.337 139.839" stroke="black" stroke-width="2" stroke-linecap="round"/>
<path d="M296.963 51.6863C296.234 49.9427 295.241 48.2756 293.379 47.6549C291.599 47.0616 289.989 46.1658 288.362 45.2361" stroke="black" stroke-width="3.09322" stroke-linecap="round"/>
<path d="M285.137 40.9358C285.8 41.3173 286.547 41.6626 287.287 42.0108" stroke="black" stroke-width="3.09322" stroke-linecap="round"/>
<path d="M289.438 38.7856C289.987 40.4883 290.905 42.495 291.998 43.7952C292.187 44.0205 292.409 44.1004 292.663 44.1608" stroke="black" stroke-width="3.09322" stroke-linecap="round"/>
<path d="M291.585 38.7856C291.796 39.6924 292.343 40.6887 292.997 41.481C293.183 41.7058 293.447 41.863 293.736 42.0107" stroke="black" stroke-width="3.09322" stroke-linecap="round"/>
<path d="M293.735 37.7109C294.163 39.6571 294.777 41.5704 295.423 43.4444C295.533 43.7642 295.602 44.0089 295.885 44.1611" stroke="black" stroke-width="3.09322" stroke-linecap="round"/>
<path d="M295.886 44.1611C297.192 44.6823 298.358 45.7673 299.21 46.7861C299.649 47.3117 299.99 47.9667 300.112 48.6212C300.17 48.9311 300.186 49.2237 300.186 49.5363" stroke="black" stroke-width="3.09322" stroke-linecap="round"/>
<path d="M283.03 33.635L317.39 33.635" stroke="black" stroke-width="1.68414" stroke-linecap="round"/>
<path d="M282.455 34.7988V44.058" stroke="black" stroke-width="1.68414" stroke-linecap="round"/>
<path d="M283.546 44.2393L319.857 44.2393" stroke="black" stroke-width="1.68414" stroke-linecap="round"/>
<path d="M321.125 34.0728V43.8765" stroke="black" stroke-width="1.68414" stroke-linecap="round"/>
<path d="M275.387 25.7886L276.795 33.7762" stroke="black" stroke-width="1.68414" stroke-linecap="round"/>
<path d="M278.427 30.088L277.612 31.9321L276.797 33.7762" stroke="black" stroke-width="1.68414" stroke-linecap="round"/>
<path d="M282.82 28.7679L280.516 29.3284L279.361 29.6756" stroke="black" stroke-width="1.68414" stroke-linecap="round"/>
<path d="M275.387 25.7886L283.008 28.5627" stroke="black" stroke-width="1.68414" stroke-linecap="round"/>
<rect x="282.968" y="34.1853" width="37.6491" height="9.75085" fill="#FFD966"/>
<path d="M337.942 54.4873L372.302 54.4873" stroke="black" stroke-width="1.68414" stroke-linecap="round"/>
<path d="M337.366 55.6514V64.9105" stroke="black" stroke-width="1.68414" stroke-linecap="round"/>
<path d="M338.458 65.092L374.768 65.092" stroke="black" stroke-width="1.68414" stroke-linecap="round"/>
<path d="M376.036 54.9255V64.7293" stroke="black" stroke-width="1.68414" stroke-linecap="round"/>
<path d="M330.299 46.6411L331.707 54.6288" stroke="black" stroke-width="1.68414" stroke-linecap="round"/>
<path d="M333.338 50.9406L332.523 52.7847L331.708 54.6288" stroke="black" stroke-width="1.68414" stroke-linecap="round"/>
<path d="M337.731 49.6207L335.427 50.1811L334.273 50.5284" stroke="black" stroke-width="1.68414" stroke-linecap="round"/>
<path d="M330.299 46.6411L337.921 49.4152" stroke="black" stroke-width="1.68414" stroke-linecap="round"/>
<rect x="337.879" y="55.0376" width="37.6491" height="9.75085" fill="#45B6C6"/>
<path d="M399.109 55.1826L433.469 55.1826" stroke="black" stroke-width="1.68414" stroke-linecap="round"/>
<path d="M398.534 56.3464V65.6056" stroke="black" stroke-width="1.68414" stroke-linecap="round"/>
<path d="M399.625 65.7871L435.935 65.7871" stroke="black" stroke-width="1.68414" stroke-linecap="round"/>
<path d="M437.204 55.6204V65.4242" stroke="black" stroke-width="1.68414" stroke-linecap="round"/>
<path d="M391.466 47.3362L392.874 55.3239" stroke="black" stroke-width="1.68414" stroke-linecap="round"/>
<path d="M394.505 51.6356L393.69 53.4797L392.875 55.3238" stroke="black" stroke-width="1.68414" stroke-linecap="round"/>
<path d="M398.899 50.3157L396.595 50.8762L395.441 51.2234" stroke="black" stroke-width="1.68414" stroke-linecap="round"/>
<path d="M391.466 47.3362L399.088 50.1103" stroke="black" stroke-width="1.68414" stroke-linecap="round"/>
<rect x="399.046" y="55.7329" width="37.6491" height="9.75085" fill="#893759"/>
<path d="M446.591 34.2791L479.142 45.2821" stroke="black" stroke-width="1.68414" stroke-linecap="round"/>
<path d="M445.673 35.1975L442.708 43.9691" stroke="black" stroke-width="1.68414" stroke-linecap="round"/>
<path d="M443.681 44.4902L478.079 56.1178" stroke="black" stroke-width="1.68414" stroke-linecap="round"/>
<path d="M482.538 46.8928L479.399 56.1804" stroke="black" stroke-width="1.68414" stroke-linecap="round"/>
<path d="M441.861 24.3982L440.638 32.4163" stroke="black" stroke-width="1.68414" stroke-linecap="round"/>
<path d="M443.365 29.4448L442.002 30.9307L440.639 32.4167" stroke="black" stroke-width="1.68414" stroke-linecap="round"/>
<path d="M447.947 29.6009L445.585 29.394L444.38 29.3532" stroke="black" stroke-width="1.68414" stroke-linecap="round"/>
<path d="M441.861 24.3982L448.193 29.4669" stroke="black" stroke-width="1.68414" stroke-linecap="round"/>
<rect x="446.355" y="34.7803" width="37.6491" height="9.75085" transform="rotate(18.6766 446.355 34.7803)" fill="#FFC2AB"/>
<path d="M230.662 36.6133L264.516 42.4867" stroke="black" stroke-width="1.68414" stroke-linecap="round"/>
<path d="M229.896 37.6616L228.313 46.7845" stroke="black" stroke-width="1.68414" stroke-linecap="round"/>
<path d="M229.356 47.1497L265.132 53.3565" stroke="black" stroke-width="1.68414" stroke-linecap="round"/>
<path d="M268.121 43.5566L266.445 53.2161" stroke="black" stroke-width="1.68414" stroke-linecap="round"/>
<path d="M224.471 27.5759L224.494 35.6868" stroke="black" stroke-width="1.68414" stroke-linecap="round"/>
<path d="M226.731 32.3317L225.612 34.0093L224.494 35.687" stroke="black" stroke-width="1.68414" stroke-linecap="round"/>
<path d="M231.285 31.7817L228.919 31.9401L227.722 32.0848" stroke="black" stroke-width="1.68414" stroke-linecap="round"/>
<path d="M224.471 27.5759L231.507 31.612" stroke="black" stroke-width="1.68414" stroke-linecap="round"/>
<rect x="230.507" y="37.1448" width="37.6491" height="9.75085" transform="rotate(9.84238 230.507 37.1448)" fill="#C79F7A"/>
<path d="M176.295 39.6917L210.149 45.5651" stroke="black" stroke-width="1.68414" stroke-linecap="round"/>
<path d="M175.529 40.74L173.947 49.8628" stroke="black" stroke-width="1.68414" stroke-linecap="round"/>
<path d="M174.989 50.2278L210.765 56.4346" stroke="black" stroke-width="1.68414" stroke-linecap="round"/>
<path d="M213.754 46.6348L212.078 56.2943" stroke="black" stroke-width="1.68414" stroke-linecap="round"/>
<path d="M170.104 30.6541L170.127 38.7649" stroke="black" stroke-width="1.68414" stroke-linecap="round"/>
<path d="M172.364 35.4098L171.245 37.0875L170.127 38.7651" stroke="black" stroke-width="1.68414" stroke-linecap="round"/>
<path d="M176.918 34.8601L174.552 35.0185L173.355 35.1632" stroke="black" stroke-width="1.68414" stroke-linecap="round"/>
<path d="M170.104 30.6541L177.14 34.6902" stroke="black" stroke-width="1.68414" stroke-linecap="round"/>
<rect x="176.14" y="40.2229" width="37.6491" height="9.75085" transform="rotate(9.84238 176.14 40.2229)" fill="#C6457B"/>
<path d="M646.563 341.857C646.563 363.163 163.489 375.916 126.636 375.916C89.7826 375.916 32.4512 321.805 32.4512 300.499C32.4512 279.193 180.492 201.101 217.345 201.101C545.474 163.88 646.563 320.551 646.563 341.857Z" fill="#C7E7CE"/>
<path d="M611.485 348.684C611.485 363.891 229.541 375.593 203.229 375.593C176.916 375.593 173.023 334.371 173.023 319.164C203.229 229.114 270.459 247.302 362.049 234.635C636.987 214.542 611.485 333.476 611.485 348.684Z" fill="#A5D9B1"/>
<path d="M290.513 96.8376C283.867 103.999 274.336 113.425 273.312 123.713" stroke="black" stroke-width="2" stroke-linecap="round"/>
<path d="M88.4072 253.792C115.875 244.289 138.924 224.393 165.911 213.608C172.74 210.879 182.366 206.415 189.939 206.014C198.49 205.561 200.455 215.983 210.744 213.682C216.036 212.498 221.873 207.86 226.86 205.35C231.325 203.103 235.979 201.652 240.778 200.41C247.295 198.724 250.737 203.359 257.187 203.359" stroke="black" stroke-width="3" stroke-linecap="round"/>
<path d="M286.212 208.641H292.662" stroke="black" stroke-width="3.09322" stroke-linecap="round"/>
<path d="M432.477 196.085C447.6 204.487 478.273 214.977 494.519 219.526C513.203 224.757 530.609 235.972 548.27 243.92C553.503 246.275 557.547 246.439 561.892 250.784C567.48 256.372 573.561 262.306 580.9 265.568C584.845 267.321 590.429 267.814 594.628 269.369C600.644 271.598 605.868 274.673 611.313 277.395" stroke="black" stroke-width="3" stroke-linecap="round"/>
<path d="M231.75 202.528C231.75 198.858 231.75 195.188 231.75 191.518C231.75 190.612 231.676 189.674 231.85 188.78C231.972 188.158 232.105 187.491 232.145 186.859C232.238 185.417 232.451 183.929 232.451 182.49" stroke="black" stroke-width="3.09322" stroke-linecap="round"/>
<path d="M232.249 181.889C232.249 178.833 232.249 175.777 232.249 172.721C232.249 171.628 232.111 170.435 232.349 169.365" stroke="black" stroke-width="2" stroke-linecap="round"/>
<path d="M214.215 144.718C214.158 145.669 213.814 146.528 213.814 147.49C213.814 149.011 213.788 150.534 213.814 152.054C213.832 153.077 214.197 154.145 214.438 155.138C214.591 155.767 214.673 156.537 215.039 157.086C216.232 158.875 216.266 160.989 216.92 162.953" stroke="black" stroke-width="2" stroke-linecap="round"/>
<path d="M217.12 165.057C217.12 169.52 217.009 173.948 217.521 178.382" stroke="black" stroke-width="2" stroke-linecap="round"/>
<path d="M217.22 180.486C217.046 182.596 216.619 184.681 216.619 186.798" stroke="black" stroke-width="2" stroke-linecap="round"/>
<path d="M216.016 191.207C215.806 194.638 215.34 197.999 215.437 201.448C215.471 202.634 215.61 203.446 216.217 204.432" stroke="black" stroke-width="3.09322" stroke-linecap="round"/>
<path d="M221.729 203.53C221.729 200.289 221.618 197.029 221.751 193.789C221.819 192.139 222.251 190.633 222.831 189.103" stroke="black" stroke-width="3.09322" stroke-linecap="round"/>
<path d="M224.034 185.796C224.521 183.106 225.186 180.41 225.86 177.759C226.233 176.29 226.866 174.922 227.541 173.573" stroke="black" stroke-width="2" stroke-linecap="round"/>
<path d="M227.54 167.562C227.589 165.992 227.94 164.414 227.94 162.853" stroke="black" stroke-width="2" stroke-linecap="round"/>
<path d="M229.944 163.354C229.621 161.622 229.34 159.883 228.998 158.155C228.924 157.779 228.842 157.425 228.842 157.042" stroke="black" stroke-width="2" stroke-linecap="round"/>
<path d="M239.464 199.021C239.782 194.198 241.029 189.48 241.367 184.649C241.572 181.732 241.883 178.787 241.468 175.877" stroke="black" stroke-width="2" stroke-linecap="round"/>
<path d="M241.468 169.265C241.996 168.724 242.301 168.035 242.648 167.372C243.183 166.352 243.723 165.337 244.179 164.278C245.225 161.844 246.022 159.215 246.589 156.63C247.153 154.061 247.69 151.525 247.825 148.893C247.906 147.302 247.88 145.709 247.88 144.117" stroke="black" stroke-width="2" stroke-linecap="round"/>
<path d="M215.017 138.406C222.968 140.69 230.719 143.789 239.007 144.645C241.714 144.925 244.45 145.056 247.167 144.818C249.052 144.653 250.71 144.169 252.488 143.616" stroke="black" stroke-width="2" stroke-linecap="round"/>
<path d="M215.62 97.2278C213.548 99.9044 210.637 102.669 210.388 106.256C210.277 107.847 210.391 109.165 211.211 110.548C211.54 111.101 211.967 111.928 212.558 112.256C213.028 112.517 213.565 112.469 214.039 112.679C214.577 112.919 214.905 113.417 215.536 113.592C216.29 113.802 217.14 113.756 217.913 113.759C218.879 113.764 219.857 113.798 220.813 113.631C222.305 113.372 223.811 112.679 224.949 111.666C225.88 110.838 226.336 109.955 226.83 108.817C227.401 107.5 227.583 106.496 227.799 105.126C228.125 103.047 229.087 101.629 230.404 100.033C231.022 99.284 232.098 98.8182 232.352 97.9291" stroke="black" stroke-width="2" stroke-linecap="round"/>
<path d="M215.718 113.859C216.182 116.558 217.885 118.887 218.423 121.574" stroke="black" stroke-width="2" stroke-linecap="round"/>
<path d="M218.422 121.674C218.122 126.168 216.817 130.397 215.316 134.599" stroke="black" stroke-width="2" stroke-linecap="round"/>
<path d="M251.487 142.013C251.487 140.25 251.531 138.482 251.482 136.719C251.446 135.439 250.948 134.125 250.585 132.907C249.86 130.466 248.582 128.752 247.018 126.778C245.996 125.49 245.138 124.231 244.997 122.542C244.872 121.041 244.955 119.475 244.975 117.967C244.99 116.824 245.375 115.726 245.375 114.577C245.375 113.407 245.275 112.243 245.275 111.076C245.275 110.755 245.437 109.954 245.253 109.651C244.955 109.162 244.376 108.707 243.973 108.293C243.716 108.029 243.475 107.752 243.271 107.447" stroke="black" stroke-width="2" stroke-linecap="round"/>
<path d="M240.165 107.447C244.462 103.243 248.011 98.3663 250.975 93.1531C252.202 90.9942 253.099 88.6753 254.292 86.5071" stroke="black" stroke-width="2" stroke-linecap="round"/>
<path d="M236.057 96.3257C240.324 92.7081 243.458 88.2007 246.51 83.5792C248.011 81.307 249.05 78.8611 250.34 76.4768C251.011 75.2367 251.563 73.9918 252.088 72.6807" stroke="black" stroke-width="2" stroke-linecap="round"/>
<path d="M255.995 82.4992C256.553 78.4166 258.089 74.5975 258.193 70.4429C258.211 69.7532 258.199 69.0623 258.199 68.3723" stroke="black" stroke-width="2" stroke-linecap="round"/>
<path d="M253.893 64.7659C255.034 64.8597 256.218 65.1068 257.3 65.4672" stroke="black" stroke-width="3.09322" stroke-linecap="round"/>
<path d="M254.49 62.7623C255.427 59.5902 256.795 56.6966 256.889 53.3499C256.91 52.614 256.895 51.8763 256.895 51.1401" stroke="black" stroke-width="3.09322" stroke-linecap="round"/>
<path d="M258.099 64.1646C258.099 60.2079 257.773 56.1108 258.449 52.1862C258.563 51.5256 258.585 50.8838 258.8 50.238" stroke="black" stroke-width="3.09322" stroke-linecap="round"/>
<path d="M259.399 50.0376C260.22 50.1639 260.855 50.7186 261.604 51.0395" stroke="black" stroke-width="3.09322" stroke-linecap="round"/>
<path d="M256.395 49.7371C256.395 47.8283 256.368 45.9934 255.995 44.1265" stroke="black" stroke-width="3.09322" stroke-linecap="round"/>
<path d="M257.999 45.0281V50.0376" stroke="black" stroke-width="3.09322" stroke-linecap="round"/>
<path d="M233.652 76.7886C232.563 75.0408 230.363 73.3773 228.286 72.9368C226.242 72.5032 224.007 73.5188 222.286 74.5287C220.449 75.6072 218.611 77.3245 217.532 79.1876C216.678 80.6629 217.059 83.1043 217.944 84.481C218.463 85.2877 219.383 86.0044 220.204 86.4849C220.812 86.8407 221.449 87.3397 222.18 87.4033C222.709 87.4492 223.079 87.2901 223.488 86.9524C224.431 86.1734 225.268 85.2286 226.037 84.2807C226.856 83.2725 227.657 82.2572 228.687 81.453C229.337 80.9455 229.937 80.2939 230.446 79.644C231.182 78.7038 232.11 77.93 232.951 77.0892" stroke="black" stroke-width="2" stroke-linecap="round"/>
<path d="M221.727 87.8096C219.632 89.3101 217.494 90.7429 215.315 92.1178C214.283 92.7689 213.384 93.2138 212.209 93.5204" stroke="black" stroke-width="2" stroke-linecap="round"/>
<path d="M232.85 78.6924C232.268 79.8902 232.223 81.1679 232.249 82.4774C232.301 85.2101 232.823 87.9669 233.089 90.6874C233.23 92.1296 233.532 93.8747 232.816 95.2127C232.307 96.1646 231.503 96.8155 230.646 97.4281" stroke="black" stroke-width="2" stroke-linecap="round"/>
<path d="M227.54 83.2009C226.727 86.0106 226.504 88.8839 226.682 91.7951C226.794 93.6214 227.205 95.4216 227.417 97.2388C227.589 98.7121 224.943 99.3547 223.833 99.6322" stroke="black" stroke-width="2" stroke-linecap="round"/>
<path d="M223.732 86.407C223.732 89.0416 223.965 91.7954 223.71 94.4222C223.53 96.2755 221.946 97.4694 220.426 98.2295" stroke="black" stroke-width="2" stroke-linecap="round"/>
<path d="M233.252 77.7905C234.29 80.8603 237.331 84.5244 235.279 87.843C235.025 88.2525 234.502 88.8954 234.56 89.4238C234.612 89.8912 234.97 90.3818 235.156 90.8153" stroke="black" stroke-width="2" stroke-linecap="round"/>
<path d="M208.372 110.137C208.372 112.224 208.343 114.313 208.372 116.4C208.391 117.748 208.418 119.107 209.137 120.296C209.659 121.16 211.514 121.163 212.424 121.527C213.824 122.087 215.043 123.045 216.548 123.045" stroke="black" stroke-width="2" stroke-linecap="round"/>
<path d="M235.123 112.155C234.782 116.409 233.738 123.35 229.668 125.792" stroke="black" stroke-width="2" stroke-linecap="round"/>
<path d="M243.305 118C242.131 117.925 238.422 117.684 238.24 116.052C238.178 115.495 237.905 115.105 237.461 114.883" stroke="black" stroke-width="2" stroke-linecap="round"/>
<path d="M214.865 142.936C217.966 144.303 221.22 145.603 224.216 144.105" stroke="black" stroke-width="2" stroke-linecap="round"/>
<path d="M239.798 148.391C240.847 148.586 241.859 148.684 242.915 148.78" stroke="black" stroke-width="2" stroke-linecap="round"/>
<path d="M278.764 143.715C279.811 146.566 280.973 149.817 279.543 152.677" stroke="black" stroke-width="2" stroke-linecap="round"/>
<path d="M174.945 358.445C174.945 373.39 109.055 391.406 83.193 391.406C57.3311 391.406 36.6221 367.482 36.6221 352.537C36.6221 337.593 75.8946 293.051 89.4489 285.057C114.82 282.277 105.436 313.903 134.977 286.447C153.05 304.867 174.945 350.421 174.945 358.445Z" fill="#EAD7C5"/>
<path d="M170.139 363.259C170.139 373.375 125.272 385.569 107.662 385.569C90.0521 385.569 75.9507 369.376 75.9507 359.26C75.9507 349.145 102.693 318.995 111.922 313.585C129.198 311.703 122.741 318.085 142.857 299.5C155.163 311.968 170.139 357.827 170.139 363.259Z" fill="#DBB998"/>
<path d="M270.969 144.105V147.612" stroke="black" stroke-width="2" stroke-linecap="round"/>
<path d="M290.841 144.105C291.404 145.954 292.423 146.893 293.569 148.391" stroke="black" stroke-width="2" stroke-linecap="round"/>
<path d="M347.122 91.5943C347.173 90.5806 347.443 89.6089 347.508 88.5994C347.593 87.2804 347.792 85.9691 347.88 84.6506" stroke="black" stroke-width="2" stroke-linecap="round"/>
<path d="M348.26 80.6109C348.102 79.0839 347.623 77.4496 346.52 76.3465C346.044 75.87 345.507 75.4683 344.977 75.0559" stroke="black" stroke-width="2" stroke-linecap="round"/>
<path d="M338.915 74.9294C336.278 75.2041 336.011 78.2599 336.011 80.3582" stroke="black" stroke-width="2" stroke-linecap="round"/>
<path d="M335.885 83.2617C335.678 85.0417 335.963 86.7307 336.39 88.4379" stroke="black" stroke-width="2" stroke-linecap="round"/>
<path d="M335.125 90.9631C333.67 91.454 332.207 92.2397 331.113 93.3338C330.879 93.5673 330.706 93.6875 330.706 94.0212C330.706 94.4824 330.586 95.0937 330.804 95.5081C331.084 96.0393 331.363 96.4582 331.871 96.7706C332.401 97.097 333.273 96.8502 333.862 96.9039C337.069 97.1954 340.419 97.3907 343.626 96.96C344.569 96.8333 346.626 96.6241 347.112 95.5712C347.42 94.9027 347.497 94.3358 347.497 93.6144" stroke="black" stroke-width="2" stroke-linecap="round"/>
<path d="M335.631 91.0891C336.086 92.2359 337.309 93.5591 338.549 93.8666C339.394 94.0762 340.352 93.9928 341.214 93.9928C342.275 93.9928 343.009 94.1127 343.711 93.2353" stroke="black" stroke-width="2" stroke-linecap="round"/>
<path d="M330.456 98.4119V99.5481" stroke="black" stroke-width="2" stroke-linecap="round"/>
<path d="M330.454 99.6743C328.661 100.496 326.981 101.735 325.404 102.929C324.95 103.273 324.578 103.826 324.016 103.967" stroke="black" stroke-width="2" stroke-linecap="round"/>
<path d="M324.017 103.967C323.312 106.867 322.18 109.708 321.316 112.573C321.05 113.455 320.86 114.405 320.86 115.329" stroke="black" stroke-width="2" stroke-linecap="round"/>
<path d="M318.21 120C319.125 123.497 320.527 126.891 322.377 129.974" stroke="black" stroke-width="2" stroke-linecap="round"/>
<path d="M325.53 135.529C325.672 136.418 325.859 137.298 326.035 138.18" stroke="black" stroke-width="2" stroke-linecap="round"/>
<path d="M349.017 94.7505C349.112 95.4957 349.605 95.8015 349.9 96.3917" stroke="black" stroke-width="2" stroke-linecap="round"/>
<path d="M352.55 95.2554C355.5 94.719 358.391 92.8226 360.504 90.7104" stroke="black" stroke-width="2" stroke-linecap="round"/>
<path d="M571.495 354.307C571.495 362.304 536.066 371.943 522.161 371.943C508.255 371.943 497.12 359.142 497.12 351.146C497.12 343.15 518.237 319.317 525.524 315.04C539.166 313.552 534.121 330.474 550.005 315.783C559.722 325.639 571.495 350.013 571.495 354.307Z" fill="#EBBD92"/>
<path d="M544.176 360.689C544.176 365.702 521.897 371.744 513.153 371.744C504.408 371.744 497.406 363.72 497.406 358.708C497.406 353.696 510.685 338.757 515.268 336.076C523.846 335.144 521.765 332.444 530.662 336.542C536.772 342.72 544.176 357.998 544.176 360.689Z" fill="#D9AD85"/>
<path d="M361.512 88.5644C362.336 87.5021 363.449 86.4705 363.974 85.2188C364.109 84.8965 364.224 84.5603 364.416 84.272" stroke="black" stroke-width="2" stroke-linecap="round"/>
<path d="M362.776 84.398C362.554 82.2959 361.316 80.3577 361.261 78.2258C361.228 76.9607 361.261 75.6901 361.261 74.4243" stroke="black" stroke-width="2" stroke-linecap="round"/>
<path d="M358.61 72.7833C358.519 72.2755 358.421 70.6686 357.853 70.3845" stroke="black" stroke-width="3.09322" stroke-linecap="round"/>
<path d="M357.853 70.3844C358.797 70.1746 360.009 69.9396 360.728 69.2201C360.851 69.0974 360.963 69.1219 361.135 69.1219" stroke="black" stroke-width="3.09322" stroke-linecap="round"/>
<path d="M356.211 69.7531C354.06 69.1906 351.852 69.6889 349.772 68.9956" stroke="black" stroke-width="3.09322" stroke-linecap="round"/>
<path d="M348.888 67.1018C348.234 67.0401 346.482 66.8287 346.237 66.0918" stroke="black" stroke-width="3.09322" stroke-linecap="round"/>
<path d="M352.928 65.9657C351.998 65.5972 351.066 65.183 350.122 64.8575C349.826 64.7553 349.695 64.7146 349.519 64.4507" stroke="black" stroke-width="3.09322" stroke-linecap="round"/>
<path d="M354.695 64.072C355.78 64.9892 356.745 66.0588 357.851 66.9477C358.008 67.0735 358.164 67.102 358.356 67.102" stroke="black" stroke-width="3.09322" stroke-linecap="round"/>
<path d="M360.502 67.8594C362.003 68.1596 363.495 69.1541 364.669 70.1319" stroke="black" stroke-width="3.09322" stroke-linecap="round"/>
<path d="M367.32 71.1421C368.719 74.9375 370.062 78.7049 371.907 82.3081C372.38 83.2301 372.773 84.1832 373.212 85.1207C373.308 85.3249 373.331 85.4468 373.507 85.5345" stroke="black" stroke-width="2" stroke-linecap="round"/>
<path d="M373.004 87.1758C370.459 92.0928 367.31 96.6187 363.998 101.035C363.275 101.999 362.62 103.115 361.768 103.967" stroke="black" stroke-width="2" stroke-linecap="round"/>
<path d="M358.607 110.027V115.329" stroke="black" stroke-width="2" stroke-linecap="round"/>
<path d="M357.898 115.104C357.898 124.661 357.898 134.218 357.898 143.776C357.898 144.667 358.254 145.38 358.377 146.242" stroke="black" stroke-width="2" stroke-linecap="round"/>
<path d="M330.752 118.297C336.852 123.64 341.887 130.212 347.359 136.182" stroke="black" stroke-width="2" stroke-linecap="round"/>
<path d="M325.96 141.451C333.86 143.114 341.849 144.745 349.948 143.66C352.584 143.307 355.474 142.255 357.258 140.174" stroke="black" stroke-width="2" stroke-linecap="round"/>
<path d="M325.642 142.09V154.705" stroke="black" stroke-width="2" stroke-linecap="round"/>
<path d="M341.93 151.032C341.93 156.01 342.256 161.095 341.61 166.042" stroke="black" stroke-width="2" stroke-linecap="round"/>
<path d="M326.12 156.781C326.761 162.978 328.184 169.092 328.675 175.304C328.9 178.162 328.89 181.034 329.154 183.891C329.25 184.937 329.278 186.084 329.633 187.085C329.718 187.325 329.792 187.504 329.792 187.759" stroke="black" stroke-width="2" stroke-linecap="round"/>
<path d="M329.793 187.759C331.03 190.3 332.443 192.926 333.111 195.69C333.367 196.746 333.506 197.789 333.945 198.777" stroke="black" stroke-width="3.09322" stroke-linecap="round"/>
<path d="M342.569 196.861C342.287 194.57 341.542 192.751 340.715 190.545C339.777 188.044 339.12 185.479 338.453 182.898C338.129 181.646 337.762 180.423 337.619 179.136" stroke="black" stroke-width="2" stroke-linecap="round"/>
<path d="M337.939 178.178C338.291 174.858 338.258 171.49 338.258 168.154C338.258 167.427 338.189 166.73 338.418 166.042" stroke="black" stroke-width="2" stroke-linecap="round"/>
<path d="M343.367 148.956C345.366 153.372 347.851 157.583 350.198 161.82C351.473 164.122 352.749 166.384 354.207 168.571C354.772 169.418 355.618 170.291 355.822 171.312" stroke="black" stroke-width="2" stroke-linecap="round"/>
<path d="M356.142 173.228C357.101 181.146 359.986 188.867 363.327 196.063" stroke="black" stroke-width="2" stroke-linecap="round"/>
<path d="M358.059 145.284C358.959 153.549 360.523 161.731 361.536 169.981C361.672 171.084 361.546 172.539 362.051 173.548" stroke="black" stroke-width="2" stroke-linecap="round"/>
<path d="M362.05 165.563C364.015 171.145 366.528 176.527 368.553 182.091C369.61 184.995 370.477 187.968 371.454 190.9C371.569 191.244 372.223 194.162 372.749 193.987" stroke="black" stroke-width="2" stroke-linecap="round"/>
<path d="M364.765 198.458C366.747 199.422 369.691 200.65 371.152 198.458" stroke="black" stroke-width="3.09322" stroke-linecap="round"/>
<path d="M340.461 105.52C342.579 107.151 344.895 108.368 347.279 109.56" stroke="black" stroke-width="2" stroke-linecap="round"/>
<path d="M334.773 81.47C337.689 81.8304 340.62 81.9013 343.554 81.9013C344.513 81.9013 345.591 82.0409 346.525 81.7695C347.385 81.5193 347.869 80.9692 348.573 80.4998" stroke="black" stroke-width="2" stroke-linecap="round"/>
<path d="M335.663 80.6887C333.513 80.6887 331.358 80.6887 329.212 80.6887" stroke="black" stroke-width="2" stroke-linecap="round"/>
<path d="M399.49 77.3206C399.425 79.7088 399.177 82.095 399.177 84.4847C399.177 85.6177 399.516 86.3599 400.281 87.1799C401.259 88.2274 402.388 89.1386 403.403 90.1534" stroke="black" stroke-width="2" stroke-linecap="round"/>
<path d="M407.627 91.7185C410.149 93.9012 412.252 96.5376 413.157 99.7868C413.847 102.265 414.287 104.853 414.826 107.368" stroke="black" stroke-width="2" stroke-linecap="round"/>
<path d="M414.67 91.4053C415.76 96.5462 416.392 101.868 416.392 107.125C416.392 108.907 416.449 110.663 415.922 112.376" stroke="black" stroke-width="2" stroke-linecap="round"/>
<path d="M405.906 94.8484C406.594 96.425 406.983 98.0544 407.471 99.6998" stroke="black" stroke-width="2" stroke-linecap="round"/>
<path d="M404.027 72.782C405.588 71.9082 406.716 71.6865 408.409 71.6865" stroke="black" stroke-width="3.09322" stroke-linecap="round"/>
<path d="M413.889 74.1907C415.016 76.8892 416.365 79.6818 416.827 82.5894C417.027 83.8437 417.019 85.1311 417.019 86.3975" stroke="black" stroke-width="2" stroke-linecap="round"/>
<path d="M419.365 87.3364V99.0738" stroke="black" stroke-width="2" stroke-linecap="round"/>
<path d="M419.365 99.6997C419.609 102.053 420.711 104.28 421.243 106.586" stroke="black" stroke-width="2" stroke-linecap="round"/>
<path d="M405.749 77.4771C406.641 80.4724 408.469 83.2879 410.722 85.4584C411.388 86.1009 411.931 86.3115 412.791 86.3974" stroke="black" stroke-width="2" stroke-linecap="round"/>
<path d="M402.933 92.8137C402.977 93.9712 403.402 95.117 403.402 96.2567" stroke="black" stroke-width="2" stroke-linecap="round"/>
<path d="M402.463 98.1345C400.763 99.5176 399.024 100.852 397.299 102.203" stroke="black" stroke-width="2" stroke-linecap="round"/>
<path d="M396.044 104.239V110.968" stroke="black" stroke-width="2" stroke-linecap="round"/>
<path d="M393.229 103.769C393.135 105.362 392.446 106.869 392.446 108.464" stroke="black" stroke-width="2" stroke-linecap="round"/>
<path d="M398.081 105.959C399.095 108.046 400.234 110.517 400.428 112.845" stroke="black" stroke-width="2" stroke-linecap="round"/>
<path d="M390.882 113.315V127.087" stroke="black" stroke-width="2" stroke-linecap="round"/>
<path d="M399.647 117.541V130.686" stroke="black" stroke-width="2" stroke-linecap="round"/>
<path d="M397.297 132.721C396.632 136.088 394.531 139.074 392.759 141.954" stroke="black" stroke-width="2" stroke-linecap="round"/>
<path d="M390.257 136.007C389.429 138.134 388.578 140.25 387.692 142.354C387.564 142.658 387.44 142.886 387.44 143.206" stroke="black" stroke-width="2" stroke-linecap="round"/>
<path d="M386.97 145.867C387.115 146.681 387.317 147.361 387.753 148.058" stroke="black" stroke-width="2" stroke-linecap="round"/>
<path d="M391.664 143.05C391.686 144.834 391.518 146.867 392.012 148.597C392.128 149.003 392.345 149.37 392.447 149.779" stroke="black" stroke-width="2" stroke-linecap="round"/>
<path d="M388.534 149.31C389.262 149.486 389.991 149.632 390.725 149.779" stroke="black" stroke-width="2" stroke-linecap="round"/>
<path d="M397.142 136.007V154.474" stroke="black" stroke-width="2" stroke-linecap="round"/>
<path d="M397.142 133.19C401.357 136.685 405.358 140.429 409.574 143.919C411.732 145.705 413.931 147.414 416.739 147.953C419.825 148.546 423.205 148.117 426.094 146.962" stroke="black" stroke-width="2" stroke-linecap="round"/>
<path d="M427.19 147.275C427.869 146.486 429.174 144.771 430.32 144.771" stroke="black" stroke-width="2" stroke-linecap="round"/>
<path d="M432.823 142.893C432.738 140.305 432.548 137.711 432.267 135.138C431.973 132.449 431.129 130.02 430.406 127.434C429.422 123.913 428.754 120.41 428.754 116.758" stroke="black" stroke-width="2" stroke-linecap="round"/>
<path d="M429.223 111.907C429.379 108.577 429.279 104.858 428.215 101.665C427.786 100.379 427.343 99.144 427.032 97.8218" stroke="black" stroke-width="2" stroke-linecap="round"/>
<path d="M408.723 150.092C408.723 153.271 408.855 156.475 408.567 159.639" stroke="black" stroke-width="2" stroke-linecap="round"/>
<path d="M396.204 152.283C395.773 158.691 395.891 165.114 395.891 171.532" stroke="black" stroke-width="2" stroke-linecap="round"/>
<path d="M407.157 162.143C406.604 165.325 405.561 168.339 404.514 171.393C403.336 174.83 402.224 178.49 400.463 181.696C399.983 182.569 399.441 183.4 398.863 184.209" stroke="black" stroke-width="2" stroke-linecap="round"/>
<path d="M409.349 153.535C409.855 157.615 410.651 161.681 411.47 165.707C412.05 168.556 412.774 171.185 413.922 173.845C414.931 176.184 416.031 178.183 417.643 180.14" stroke="black" stroke-width="2" stroke-linecap="round"/>
<path d="M424.532 148.371C424.724 160.549 425.78 172.682 424.845 184.835" stroke="black" stroke-width="2" stroke-linecap="round"/>
<path d="M424.841 185.147V200.328" stroke="black" stroke-width="3.09322" stroke-linecap="round"/>
<path d="M417.644 187.182C417.824 192.549 418.114 197.931 418.114 203.301" stroke="black" stroke-width="3.09322" stroke-linecap="round"/>
<path d="M401.838 179.983V202.049" stroke="black" stroke-width="2" stroke-linecap="round"/>
<path d="M393.074 171.376C393.229 179.877 393.387 188.382 393.387 196.885" stroke="black" stroke-width="2" stroke-linecap="round"/>
<path d="M401.681 150.718C402.542 150.745 403.337 150.895 404.185 151.031" stroke="black" stroke-width="2" stroke-linecap="round"/>
<path d="M398.863 144.615C402.196 145.123 405.493 146.023 408.879 146.023" stroke="black" stroke-width="2" stroke-linecap="round"/>
<path d="M426.878 94.0658C427.623 92.743 428.599 91.2474 428.599 89.6838" stroke="black" stroke-width="2" stroke-linecap="round"/>
<path d="M431.728 102.36C433.421 98.494 435.565 94.4984 436.031 90.2488C436.192 88.7811 436.31 87.345 436.735 85.9277" stroke="black" stroke-width="2" stroke-linecap="round"/>
<path d="M436.581 82.7978C436.272 80.9806 434.809 79.6684 433.59 78.3984C432.947 77.7284 432.532 76.8517 432.042 76.0684" stroke="black" stroke-width="2" stroke-linecap="round"/>
<path d="M430.632 73.721C429.551 73.3948 428.426 73.5217 427.345 73.2515" stroke="black" stroke-width="3.09322" stroke-linecap="round"/>
<path d="M422.181 73.2515C423.423 75.6178 424.942 77.8612 426.615 79.9461C426.885 80.2827 427.166 80.512 427.502 80.7634" stroke="black" stroke-width="2" stroke-linecap="round"/>
<path d="M420.931 72.4694C418.811 71.4095 416.795 70.1484 414.758 68.9395C413.742 68.3363 412.679 67.5615 411.524 67.218C411.184 67.1171 410.802 66.9919 410.446 66.9919" stroke="black" stroke-width="3.09322" stroke-linecap="round"/>
<path d="M419.991 70.1215C417.439 68.8297 415.266 67.1187 413.261 65.1135" stroke="black" stroke-width="3.09322" stroke-linecap="round"/>
<path d="M419.364 65.896C418.911 65.4551 418.435 65.055 417.956 64.644" stroke="black" stroke-width="3.09322" stroke-linecap="round"/>
<path d="M422.025 71.5301C421.706 70.9386 421.339 70.4869 420.929 69.9651" stroke="black" stroke-width="3.09322" stroke-linecap="round"/>
<path d="M421.188 118.532C417.411 125.282 411.723 130.841 406.851 136.779" stroke="black" stroke-width="2" stroke-linecap="round"/>
<path d="M411.629 154.591H418.581" stroke="black" stroke-width="2" stroke-linecap="round"/>
<path d="M396.859 168.494H402.072" stroke="black" stroke-width="2" stroke-linecap="round"/>
<path d="M330.819 168.928H338.205" stroke="black" stroke-width="2" stroke-linecap="round"/>
<path d="M449.336 79.2317C449.04 80.8434 448.518 82.4196 448.164 84.0128C447.915 85.1339 449.225 86.2088 449.83 86.9601C450.204 87.4238 450.969 88.0514 451.031 88.6703C451.095 89.3065 451.038 89.9746 451.038 90.6133C451.038 91.4363 451.77 91.2828 452.465 91.2828C453.975 91.2828 455.269 90.9161 456.715 90.5259C457.391 90.3433 457.931 90.0542 458.476 90.5987C459.186 91.309 459.651 92.3729 460.135 93.2404C460.389 93.6964 460.638 94.1471 460.834 94.6303C460.941 94.8945 461.385 94.8481 461.62 94.8996C463.846 95.3882 465.85 96.2171 467.31 98.0506C468.405 99.4246 468.689 101.624 467.849 103.188C466.688 105.35 466.927 107.38 467.674 109.621" stroke="black" stroke-width="2" stroke-linecap="round"/>
<path d="M467.545 98.225C466.429 97.2599 465.392 96.2062 464.321 95.1904C463.898 94.7881 463.449 94.3442 463.303 93.7568C463.057 92.776 463.294 91.8987 463.717 91.0206C464.223 89.9714 464.397 88.7378 464.787 87.644C465.009 87.0225 465.186 86.3829 465.42 85.7664C465.548 85.4308 465.708 85.3631 465.58 84.9951C465.329 84.2682 464.88 83.6012 464.518 82.9283C463.909 81.7953 463.377 80.5955 462.575 79.5808C462.097 78.9763 461.513 78.5497 460.967 78.0235C459.884 76.9811 458.321 77.0396 456.935 76.7427" stroke="black" stroke-width="2" stroke-linecap="round"/>
<path d="M462.174 96.3914C463.251 97.1609 464.49 98.3251 463.585 99.6224C463.108 100.307 462.16 101.138 462.05 102.017C461.957 102.762 461.459 104.876 462.305 105.299" stroke="black" stroke-width="2" stroke-linecap="round"/>
<path d="M453.007 81.5894C453.114 82.598 453.402 84.0266 454.2 84.7331C454.715 85.1887 455.781 84.9951 456.413 84.9951" stroke="black" stroke-width="2" stroke-linecap="round"/>
<path d="M452.742 93.6406C452.742 95.1857 452.193 97.4911 454.183 97.8032C454.836 97.9056 455.562 97.8323 456.22 97.8323C457.514 97.8323 458.606 98.5713 459.553 97.3083" stroke="black" stroke-width="2" stroke-linecap="round"/>
<path d="M454.708 93.9026C455.257 94.2902 455.834 94.6094 456.411 94.9505" stroke="black" stroke-width="2" stroke-linecap="round"/>
<path d="M454.053 99.1423C451.49 100.576 449.035 102.783 447.125 105.022C446.81 105.391 446.443 105.741 446.324 106.216" stroke="black" stroke-width="2" stroke-linecap="round"/>
<path d="M446.324 108.312C447.184 108.806 447.936 109.409 448.682 110.065C449.52 110.803 450.739 111.739 451.069 112.882C451.283 113.623 451.171 114.488 451.171 115.254" stroke="black" stroke-width="2" stroke-linecap="round"/>
<path d="M444.884 111.324C444.459 113.946 444.098 116.527 444.098 119.184" stroke="black" stroke-width="2" stroke-linecap="round"/>
<path d="M444.097 120.625C443.891 124.34 443.232 128.046 442.853 131.751C442.66 133.64 442.444 135.518 442.132 137.391" stroke="black" stroke-width="2" stroke-linecap="round"/>
<path d="M442.134 137.26C441.884 139.455 440.707 141.522 440.562 143.708C440.514 144.419 440.038 145.02 439.914 145.702C439.814 146.253 440.267 146.996 440.576 147.404C441.359 148.436 442.576 149.28 443.575 150.097" stroke="black" stroke-width="2" stroke-linecap="round"/>
<path d="M443.707 150.097C444.731 148.293 445.892 146.421 446.298 144.363C446.49 143.389 446.521 142.398 446.691 141.423C446.975 139.79 447.241 138.143 447.535 136.503C447.818 134.926 448.198 133.412 448.859 131.962C449.308 130.979 449.42 129.907 449.602 128.848C450.003 126.508 450.306 124.152 450.65 121.803" stroke="black" stroke-width="2" stroke-linecap="round"/>
<path d="M450.908 122.982C450.746 127.315 450.203 131.612 450.123 135.95" stroke="black" stroke-width="2" stroke-linecap="round"/>
<path d="M446.851 147.085C449.039 147.334 451.233 147.565 453.43 147.725C455.523 147.878 457.824 148.038 459.87 147.434C461.879 146.841 463.206 145.185 464.535 143.679" stroke="black" stroke-width="2" stroke-linecap="round"/>
<path d="M472.656 141.452C474.144 140.801 475.96 139.958 476.455 138.308" stroke="black" stroke-width="2" stroke-linecap="round"/>
<path d="M477.109 135.295C476.985 132.537 476.74 129.748 476.17 127.043C475.536 124.032 474.275 121.21 473.121 118.376C471.667 114.806 471.096 111.311 470.69 107.525" stroke="black" stroke-width="2" stroke-linecap="round"/>
<path d="M472.917 107.133C473.296 102.828 473.571 98.4876 473.571 94.1646" stroke="black" stroke-width="2" stroke-linecap="round"/>
<path d="M462.044 76.0878C462.044 73.3419 462.044 70.5959 462.044 67.85C462.044 67.1763 461.969 66.4482 462.102 65.7833C462.454 64.0259 463.353 62.3368 463.849 60.6019C464.075 59.8082 463.792 59.881 464.358 60.4563C465.297 61.4108 467.065 62.5837 467.414 63.964C467.7 65.0906 467.533 66.2989 467.807 67.4279C468.281 69.3778 468.845 71.2753 469.219 73.2497C469.401 74.212 469.51 75.1263 469.962 76.0078C470.43 76.923 470.984 77.7893 471.446 78.7076C474.357 84.4917 475.562 91.1366 476.715 97.4392" stroke="black" stroke-width="2" stroke-linecap="round"/>
<path d="M462.436 56.3082C462.416 54.7605 462.379 53.2124 462.334 51.6653C462.313 50.9205 462.34 50.2152 462.043 49.5258C461.846 49.0675 461.509 48.669 461.388 48.1868" stroke="black" stroke-width="3.09322" stroke-linecap="round"/>
<path d="M461.389 48.1871C461.313 47.008 461.258 45.832 461.258 44.6504" stroke="black" stroke-width="3.09322" stroke-linecap="round"/>
<path d="M464.141 47.2703V51.331" stroke="black" stroke-width="3.09322" stroke-linecap="round"/>
<path d="M465.189 58.7969C465.264 57.2132 465.52 55.6533 465.713 54.0813" stroke="black" stroke-width="3.09322" stroke-linecap="round"/>
<path d="M464.664 133.068C464.587 135.734 464.409 138.396 464.271 141.059" stroke="black" stroke-width="2" stroke-linecap="round"/>
<path d="M461.127 151.8V154.027" stroke="black" stroke-width="2" stroke-linecap="round"/>
<path d="M470.821 142.107C471.986 147.881 471.869 153.919 471.869 159.791" stroke="black" stroke-width="2" stroke-linecap="round"/>
<path d="M463.878 159.529C464.708 164.007 466.514 167.977 468.07 172.235" stroke="black" stroke-width="2" stroke-linecap="round"/>
<path d="M472.786 165.292C472.821 168.77 472.779 172.317 473.499 175.735C473.926 177.757 474.664 179.64 475.319 181.593C476.214 184.267 476.847 186.965 476.847 189.787" stroke="black" stroke-width="2" stroke-linecap="round"/>
<path d="M467.677 176.95C468.387 179.572 469.38 182.331 469.38 185.072" stroke="black" stroke-width="2" stroke-linecap="round"/>
<path d="M459.817 157.302C459.817 162.924 459.591 168.591 460.079 174.199" stroke="black" stroke-width="2" stroke-linecap="round"/>
<path d="M460.471 180.749C460.636 184.647 460.694 188.648 460.34 192.538" stroke="black" stroke-width="2" stroke-linecap="round"/>
<path d="M447.632 150.359C447.839 153.586 448.175 156.807 448.506 160.023C448.653 161.457 448.742 162.973 449.073 164.39C449.178 164.836 449.352 164.935 449.728 165.161" stroke="black" stroke-width="2" stroke-linecap="round"/>
<path d="M450.647 168.043C452.504 174.568 454.092 181.046 454.176 187.845C454.203 190.02 454.184 192.197 454.184 194.372" stroke="black" stroke-width="2" stroke-linecap="round"/>
<path d="M439.645 150.359C439.845 152.505 439.645 154.693 439.645 156.85C439.645 157.534 439.645 158.219 439.645 158.903C439.645 159.411 439.767 159.308 440.169 159.135" stroke="black" stroke-width="2" stroke-linecap="round"/>
<path d="M441.872 156.778V159.922" stroke="black" stroke-width="2" stroke-linecap="round"/>
<path d="M458.819 201.335C462.17 201.377 465.504 201.577 468.851 201.736" stroke="black" stroke-width="3.09322" stroke-linecap="round"/>
<path d="M462.431 108.645C462.036 115.353 461.127 122.028 460.424 128.708" stroke="black" stroke-width="2" stroke-linecap="round"/>
<path d="M189.418 89.1548C190.269 87.0106 190.618 84.657 190.618 82.3547" stroke="black" stroke-width="2" stroke-linecap="round"/>
<path d="M192.817 78.1549C193.995 72.2691 196.08 66.5967 197.04 60.6657C197.38 58.5598 197.665 56.3598 198.417 54.3545" stroke="black" stroke-width="2" stroke-linecap="round"/>
<path d="M199.215 53.5544C201.006 53.8411 202.385 55.0357 202.815 56.7545" stroke="black" stroke-width="3.09322" stroke-linecap="round"/>
<path d="M202.817 57.1543V81.5547" stroke="black" stroke-width="2" stroke-linecap="round"/>
<path d="M200.618 81.1545C199.27 87.9661 194.717 93.9706 194.218 100.955" stroke="black" stroke-width="2" stroke-linecap="round"/>
<path d="M196.416 96.9551C196.416 104.815 196.416 112.631 195.816 120.467C195.661 122.485 195.416 124.53 195.416 126.556" stroke="black" stroke-width="2" stroke-linecap="round"/>
<path d="M165.817 134.356C170.175 135.75 174.943 136.429 179.506 136.633C182.134 136.751 184.789 136.348 187.095 135.045C188.854 134.051 190.292 133.333 192.218 132.756" stroke="black" stroke-width="2" stroke-linecap="round"/>
<path d="M181.617 95.9548C180.498 104.987 177.468 113.757 178.617 122.955" stroke="black" stroke-width="2" stroke-linecap="round"/>
<path d="M179.616 143.756V152.156" stroke="black" stroke-width="2" stroke-linecap="round"/>
<path d="M165.617 137.356V144.356" stroke="black" stroke-width="2" stroke-linecap="round"/>
<path d="M165.615 147.956C165.272 152.377 165.415 156.834 165.415 161.267C165.415 162.174 165.327 163.092 165.615 163.956" stroke="black" stroke-width="2" stroke-linecap="round"/>
<path d="M164.216 164.156C164.216 169.224 163.887 174.514 165.617 179.356" stroke="black" stroke-width="2" stroke-linecap="round"/>
<path d="M166.214 180.556C166.001 188.589 166.246 197.144 164.014 204.957" stroke="black" stroke-width="2" stroke-linecap="round"/>
<path d="M169.217 195.156V206.957" stroke="black" stroke-width="3.09322" stroke-linecap="round"/>
<path d="M162.016 185.756V196.157" stroke="black" stroke-width="3.09322" stroke-linecap="round"/>
<path d="M171.617 181.756C172.35 178.697 173.835 175.892 174.462 172.801C175.363 168.352 176.853 164.078 178.217 159.756" stroke="black" stroke-width="2" stroke-linecap="round"/>
<path d="M179.617 159.756C179.352 164.475 178.364 169.158 177.906 173.867C177.656 176.437 177.417 178.975 177.417 181.556" stroke="black" stroke-width="2" stroke-linecap="round"/>
<path d="M181.815 203.557C182.448 196.759 184.203 190.141 184.615 183.312C184.78 180.592 184.945 177.863 185.215 175.156" stroke="black" stroke-width="2" stroke-linecap="round"/>
<path d="M188.017 167.356C189.789 162.684 192.276 158.222 192.717 153.178C192.933 150.707 192.89 148.207 193.217 145.756" stroke="black" stroke-width="2" stroke-linecap="round"/>
<path d="M192.817 135.156V141.956" stroke="black" stroke-width="2" stroke-linecap="round"/>
<path d="M167.018 132.755C167.097 129.083 167.273 125.349 167.718 121.7C167.807 120.966 167.84 120.267 168.018 119.555" stroke="black" stroke-width="2" stroke-linecap="round"/>
<path d="M165.216 113.955C163.59 112.614 162.899 111.49 162.416 109.555" stroke="black" stroke-width="2" stroke-linecap="round"/>
<path d="M170.817 94.5547C170.722 96.8334 170.06 97.7701 167.917 98.4436C167.242 98.6558 166.337 98.9548 165.617 98.9548" stroke="black" stroke-width="2" stroke-linecap="round"/>
<path d="M165.013 98.9551C162 99.5532 160.062 100.837 158.413 103.311C158.071 103.823 158.078 104.226 157.813 104.755" stroke="black" stroke-width="2" stroke-linecap="round"/>
<path d="M151.616 105.555C149.937 105.839 148.317 106.155 146.616 106.155" stroke="black" stroke-width="2" stroke-linecap="round"/>
<path d="M146.414 106.155C145.083 107.981 143.458 109.698 141.714 111.144C140.887 111.83 139.975 112.395 139.214 113.155" stroke="black" stroke-width="2" stroke-linecap="round"/>
<path d="M132.217 116.155C132.217 118.274 131.839 120.555 134.417 120.555" stroke="black" stroke-width="2" stroke-linecap="round"/>
<path d="M142.016 117.955C147.137 115.621 151.299 111.913 156.827 110.4C158.571 109.922 160.228 109.755 162.016 109.755" stroke="black" stroke-width="2" stroke-linecap="round"/>
<path d="M162.217 109.755C162.645 109.766 162.882 109.821 163.217 109.955" stroke="black" stroke-width="2" stroke-linecap="round"/>
<path d="M132.414 119.155C129.199 121.591 126.438 124.661 123.392 127.311C122.789 127.835 122.18 128.39 121.614 128.955" stroke="black" stroke-width="2" stroke-linecap="round"/>
<path d="M121.814 128.956C119.835 130.242 117.857 132.408 115.614 133.156" stroke="black" stroke-width="2" stroke-linecap="round"/>
<path d="M120.217 131.555C120.189 133.08 119.937 134.633 120.017 136.155C120.042 136.627 120.543 135.848 120.617 135.755" stroke="black" stroke-width="2" stroke-linecap="round"/>
<path d="M122.016 132.756C122.966 131.972 123.789 131.065 124.616 130.156" stroke="black" stroke-width="2" stroke-linecap="round"/>
<path d="M130.813 122.955C131.916 122.107 133.069 121.345 134.214 120.555" stroke="black" stroke-width="2" stroke-linecap="round"/>
<path d="M175.019 69.3545C172.404 70.507 171.032 72.2151 170.541 74.9435C169.849 78.7894 171.11 82.7969 171.596 86.577C172.178 91.1 172.471 95.749 172.419 100.311C172.387 103.024 171.813 104.759 169.619 106.355" stroke="black" stroke-width="2" stroke-linecap="round"/>
<path d="M179.215 75.5544C177.147 78.7087 175.055 82.2885 174.26 86.0102C173.502 89.5597 174.512 92.5508 175.571 95.9325C176.063 97.5063 176.473 99.0885 176.771 100.71C176.964 101.764 175.88 102.49 175.215 103.155" stroke="black" stroke-width="2" stroke-linecap="round"/>
<path d="M183.015 78.7549C182.712 81.5177 181.495 84.1035 181.426 86.8995C181.375 88.9458 181.382 90.9583 181.726 92.9773C181.886 93.9215 182.342 95.5367 181.415 96.1552" stroke="black" stroke-width="2" stroke-linecap="round"/>
<path d="M168.616 73.5544C168.44 74.4197 168.133 75.1389 167.816 75.9545" stroke="black" stroke-width="2" stroke-linecap="round"/>
<path d="M183.016 75.7546C183.385 76.3602 183.65 76.7775 184.216 77.1547" stroke="black" stroke-width="2" stroke-linecap="round"/>
<path d="M185.62 78.9546C185.62 82.7559 186.287 86.8259 184.264 90.2214C183.118 92.1449 182.067 93.9973 181.419 96.1549" stroke="black" stroke-width="2" stroke-linecap="round"/>
<path d="M167.615 88.7549C166.129 90.5265 164.242 91.9386 162.393 93.3105C161.448 94.0112 160.466 94.7568 159.326 95.1105C158.535 95.3558 157.781 95.4266 157.015 95.755" stroke="black" stroke-width="2" stroke-linecap="round"/>
<path d="M169.816 90.3547C168.391 92.8486 166.317 94.6637 164.216 96.5548" stroke="black" stroke-width="2" stroke-linecap="round"/>
<path d="M159.057 35.546C157.159 34.5606 155.439 33.4523 153.648 32.3008" stroke="black" stroke-width="2.04049" stroke-linecap="round"/>
<path d="M129.309 61.5076H137.422" stroke="black" stroke-width="2.04049" stroke-linecap="round"/>
<path d="M179.07 279.476C185.548 268.723 195.892 259.69 204.882 250.99C205.962 249.945 208.706 246.543 210.651 246.543C211.362 246.543 212.631 247.864 213.625 247.985C218.911 248.628 224.267 247.691 229.311 246.183C233.479 244.936 238.002 242.019 242.111 244.32C246.867 246.983 249.77 245.902 252.628 241.615" stroke="black" stroke-width="2.04049" stroke-linecap="round"/>
<path d="M253.709 228.094C249.221 229.951 244.06 233.502 239.106 233.502" stroke="black" stroke-width="2.04049" stroke-linecap="round"/>
<path d="M144.997 251.891C146.766 250.653 160.489 238.573 161.163 239.752C162.277 241.701 162.011 243.668 163.927 245.371C167.317 248.384 169.595 242.373 171.499 239.992" stroke="black" stroke-width="2.04049" stroke-linecap="round"/>
<path d="M339.707 256.219C344.732 249.425 350.589 243.362 356.113 236.988C356.803 236.191 357.214 235.025 358.096 234.584" stroke="black" stroke-width="3" stroke-linecap="round"/>
<path d="M358.097 236.747C368.181 235.661 378.436 234.864 388.385 232.811C390.159 232.445 389.763 232.499 390.909 233.863C392.997 236.349 395.285 238.779 397.58 241.074" stroke="black" stroke-width="3" stroke-linecap="round"/>
<path d="M332.134 202.673C334.79 203.171 337.532 203.755 340.247 203.755" stroke="black" stroke-width="2.04049" stroke-linecap="round"/>
<path d="M318.072 197.805C316.895 191.625 316.933 196.963 319.274 196.062C321.763 195.105 321.02 191.937 324.022 192.937" stroke="black" stroke-width="2.04049" stroke-linecap="round"/>
<path d="M251.004 192.937C251.091 191.49 252.626 185.109 252.626 185.906C252.626 187.192 253.184 187.431 254.249 188.07" stroke="black" stroke-width="2.04049" stroke-linecap="round"/>
<path d="M274.803 156.159V169.139" stroke="black" stroke-width="2" stroke-linecap="round"/>
<path d="M278.047 69.0798C279.665 71.1956 280.351 72.325 282.915 72.325" stroke="black" stroke-width="2.04049" stroke-linecap="round"/>
<path d="M196.669 30.0238C196.669 27.3931 198.156 17.8363 195.777 16.647" stroke="black" stroke-width="2.04049" stroke-linecap="round"/>
<path d="M235.908 11.2966V19.3227" stroke="black" stroke-width="2.04049" stroke-linecap="round"/>
<path d="M292.981 15.7554C293.717 11.0095 294.214 6.25631 294.765 1.48682" stroke="black" stroke-width="2.04049" stroke-linecap="round"/>
<path d="M308.142 14.8635L309.034 10.4045" stroke="black" stroke-width="2.04049" stroke-linecap="round"/>
<path d="M267.119 22.8895C266.421 21.102 265.857 19.3645 265.335 17.5388" stroke="black" stroke-width="2.04049" stroke-linecap="round"/>
<path d="M144.946 87.0981C137.39 87.4759 130.225 89.7735 122.651 89.7735" stroke="black" stroke-width="2" stroke-linecap="round"/>
<path d="M470.446 30.0239C471.971 28.8687 473.438 27.6789 474.905 26.4568" stroke="black" stroke-width="2.04049" stroke-linecap="round"/>
<path d="M458.852 24.673C460.813 19.6551 462.501 14.6167 464.203 9.5127" stroke="black" stroke-width="2.04049" stroke-linecap="round"/>
<path d="M419.615 36.2664C419.537 32.679 419.363 29.5198 417.831 26.4568" stroke="black" stroke-width="2.04049" stroke-linecap="round"/>
<path d="M436.561 14.8635V26.4567" stroke="black" stroke-width="2.04049" stroke-linecap="round"/>
<path d="M392.862 34.4829V42.509" stroke="black" stroke-width="2.04049" stroke-linecap="round"/>
<path d="M373.242 34.4829V46.9679" stroke="black" stroke-width="2.04049" stroke-linecap="round"/>
<path d="M337.57 32.6992V42.5089" stroke="black" stroke-width="2.04049" stroke-linecap="round"/>
<path d="M327.762 22.8898C328.495 15.0993 331.713 10.2349 334.896 3.27051" stroke="black" stroke-width="2.04049" stroke-linecap="round"/>
<path d="M483.824 69.2621C491.26 69.1361 498.69 68.7241 506.118 68.3704" stroke="black" stroke-width="2.04049" stroke-linecap="round"/>
<path d="M502.55 83.531H512.36" stroke="black" stroke-width="2" stroke-linecap="round"/>
<path d="M128.894 159.333C115.641 160.892 103.116 165.845 90.5469 170.034" stroke="black" stroke-width="2" stroke-linecap="round"/>
<path d="M30.7134 366.382C32.089 351.08 41.6146 335.431 50.9854 322.884C56.5228 315.47 66.4228 310.717 71.2573 302.875C75.1013 296.639 82.2194 292.612 86.0859 286.519C88.1629 283.246 101.699 283.849 103.355 287.302C105.422 291.614 109.209 297.481 114.429 297.481C119.292 297.481 134.328 286.173 135.077 286.867C147.656 298.528 158.556 319.449 164.171 335.064" stroke="black" stroke-width="3" stroke-linecap="round"/>
<path d="M491.869 347.371C499.734 337.258 510.325 329.475 516.353 318.759C522.142 308.466 529.229 312.012 538.21 317.727C540.255 319.028 542.355 321.368 545.058 320.166C546.503 319.524 551.82 310.351 553.97 312.286C558.945 316.763 563.008 327.735 565.978 333.674C569.627 340.973 575.468 348.262 577.985 355.813" stroke="black" stroke-width="3" stroke-linecap="round"/>
<path d="M436.338 248.412C442.364 244.008 448.371 239.019 454.849 235.317C455.835 234.754 456.037 235.373 456.87 236.206C458.723 238.059 461.702 241.137 464.549 241.137C467.784 241.137 469.598 238.227 472.714 238.227C475.558 238.227 476.331 241.353 477.806 243.32" stroke="black" stroke-width="3" stroke-linecap="round"/>
<path d="M36.9297 294.246C45.3376 284.717 56.6805 277.56 64.5753 267.691C65.1673 266.951 65.9989 268.751 66.4345 269.187C68.6223 271.375 70.9565 272.575 73.7096 273.875C78.0474 275.924 82.3372 271.48 85.6732 273.148" stroke="black" stroke-width="3" stroke-linecap="round"/>
<path d="M76.2729 322.314C83.3557 316.948 81.5626 316.891 87.8184 320.83C91.0606 322.871 94.8524 322.314 98.5392 322.314C105.091 322.314 110.865 319.12 116.352 316.376" stroke="black" stroke-width="2" stroke-linecap="round"/>
<path d="M254.404 282.235C256.685 280.866 269.788 270.561 272.217 272.504C277.435 276.678 283.623 278.983 289.865 281.41C296.74 284.084 299.841 277.103 304.874 273.328" stroke="black" stroke-width="2" stroke-linecap="round"/>
<path d="M466.675 274.813C473.758 274.813 491.674 271.066 495.209 277.781C497.669 282.456 504.051 284.175 508.238 286.688" stroke="black" stroke-width="2" stroke-linecap="round"/>
<path d="M536.441 329.736H543.863" stroke="black" stroke-width="2" stroke-linecap="round"/>
<path d="M164.81 208.468V211.548" stroke="black" stroke-width="3" stroke-linecap="round"/>
<path d="M174.669 186.29V212.164" stroke="black" stroke-width="3" stroke-linecap="round"/>
<path d="M176.516 220.789C178.829 220.65 180.549 220.562 181.444 218.325" stroke="black" stroke-width="3" stroke-linecap="round"/>
<path d="M243.048 211.548C245.273 211.548 253.311 212.921 255.027 211.206C255.928 210.305 256.581 208.913 257.218 207.852" stroke="black" stroke-width="3" stroke-linecap="round"/>
<path d="M289.871 117.291C288.807 119.545 288.144 121.709 287.407 124.067" stroke="black" stroke-width="2" stroke-linecap="round"/>
<path d="M342.234 210.932C347.254 210.857 352.276 210.384 357.294 210.384C358.531 210.384 358.372 211.2 358.868 212.164C359.759 213.896 361.68 216.476 363.796 216.476" stroke="black" stroke-width="3" stroke-linecap="round"/>
<path d="M419.859 218.325H433.412" stroke="black" stroke-width="3" stroke-linecap="round"/>
<path d="M454.977 196.763C454.559 198.516 453.967 199.566 453.128 201.075" stroke="black" stroke-width="3" stroke-linecap="round"/>
<path d="M437.726 194.298C442.551 194.298 447.121 194.855 451.416 193.203C452.976 192.603 454.592 192.238 456.207 191.834" stroke="black" stroke-width="3" stroke-linecap="round"/>
<path d="M481.464 192.45C492.369 195.283 500.755 202.029 508.571 209.7C510.62 211.712 513.044 213.268 515.484 214.765C519.538 217.253 523.126 220.533 525.957 224.348C527.09 225.875 528.874 228.789 530.749 229.414" stroke="black" stroke-width="3" stroke-linecap="round"/>
<path d="M493.169 213.396C492.746 215.882 492.685 218.28 492.553 220.789" stroke="black" stroke-width="3" stroke-linecap="round"/>
<path d="M391.521 207.236C393.157 207.752 401.378 211.38 401.378 208.468" stroke="black" stroke-width="3" stroke-linecap="round"/>
<path d="M417.396 207.852H423.557" stroke="black" stroke-width="3" stroke-linecap="round"/>
<path d="M393.986 193.682V201.691" stroke="black" stroke-width="3" stroke-linecap="round"/>
<path d="M389.271 191.255C387.511 190.636 385.113 189.571 383.236 189.571C382.415 189.571 381.521 190.546 380.835 190.975C379.2 191.996 377.269 190.133 375.518 190.133" stroke="black" stroke-width="3" stroke-linecap="round"/>
<path d="M243.6 191.255C246.411 191.205 249.207 190.975 252.02 190.975" stroke="black" stroke-width="3" stroke-linecap="round"/>
<path d="M230.662 36.6133L264.516 42.4867" stroke="black" stroke-width="1.68414" stroke-linecap="round"/>
<path d="M229.896 37.6616L228.313 46.7845" stroke="black" stroke-width="1.68414" stroke-linecap="round"/>
<path d="M229.356 47.1497L265.132 53.3565" stroke="black" stroke-width="1.68414" stroke-linecap="round"/>
<path d="M268.121 43.5566L266.445 53.2161" stroke="black" stroke-width="1.68414" stroke-linecap="round"/>
<path d="M224.471 27.5759L224.494 35.6868" stroke="black" stroke-width="1.68414" stroke-linecap="round"/>
<path d="M226.731 32.3317L225.612 34.0093L224.494 35.687" stroke="black" stroke-width="1.68414" stroke-linecap="round"/>
<path d="M231.285 31.7817L228.919 31.9401L227.722 32.0848" stroke="black" stroke-width="1.68414" stroke-linecap="round"/>
<path d="M224.471 27.5759L231.507 31.612" stroke="black" stroke-width="1.68414" stroke-linecap="round"/>
<rect x="230.507" y="37.1448" width="37.6491" height="9.75085" transform="rotate(9.84238 230.507 37.1448)" fill="#C79F7A"/>
<path d="M176.295 39.6917L210.149 45.5651" stroke="black" stroke-width="1.68414" stroke-linecap="round"/>
<path d="M175.529 40.74L173.947 49.8628" stroke="black" stroke-width="1.68414" stroke-linecap="round"/>
<path d="M174.989 50.2278L210.765 56.4346" stroke="black" stroke-width="1.68414" stroke-linecap="round"/>
<path d="M213.754 46.6348L212.078 56.2943" stroke="black" stroke-width="1.68414" stroke-linecap="round"/>
<path d="M170.104 30.6541L170.127 38.7649" stroke="black" stroke-width="1.68414" stroke-linecap="round"/>
<path d="M172.364 35.4098L171.245 37.0875L170.127 38.7651" stroke="black" stroke-width="1.68414" stroke-linecap="round"/>
<path d="M176.918 34.8601L174.552 35.0185L173.355 35.1632" stroke="black" stroke-width="1.68414" stroke-linecap="round"/>
<path d="M170.104 30.6541L177.14 34.6902" stroke="black" stroke-width="1.68414" stroke-linecap="round"/>
<rect x="176.14" y="40.2229" width="37.6491" height="9.75085" transform="rotate(9.84238 176.14 40.2229)" fill="#C6457B"/>
<path d="M231.75 202.528C231.75 198.858 231.75 195.188 231.75 191.518C231.75 190.612 231.676 189.674 231.85 188.78C231.972 188.158 232.105 187.491 232.145 186.859C232.238 185.417 232.451 183.929 232.451 182.49" stroke="black" stroke-width="3.09322" stroke-linecap="round"/>
<path d="M232.249 181.889C232.249 178.833 232.249 175.777 232.249 172.721C232.249 171.628 232.111 170.435 232.349 169.365" stroke="black" stroke-width="2" stroke-linecap="round"/>
<path d="M214.215 144.718C214.158 145.669 213.814 146.528 213.814 147.49C213.814 149.011 213.788 150.534 213.814 152.054C213.832 153.077 214.197 154.145 214.438 155.138C214.591 155.767 214.673 156.537 215.039 157.086C216.232 158.875 216.266 160.989 216.92 162.953" stroke="black" stroke-width="2" stroke-linecap="round"/>
<path d="M217.12 165.057C217.12 169.52 217.009 173.948 217.521 178.382" stroke="black" stroke-width="2" stroke-linecap="round"/>
<path d="M217.22 180.486C217.046 182.596 216.619 184.681 216.619 186.798" stroke="black" stroke-width="2" stroke-linecap="round"/>
<path d="M216.016 191.207C215.806 194.638 215.34 197.999 215.437 201.448C215.471 202.634 215.61 203.446 216.217 204.432" stroke="black" stroke-width="3.09322" stroke-linecap="round"/>
<path d="M221.729 203.53C221.729 200.289 221.618 197.029 221.751 193.789C221.819 192.139 222.251 190.633 222.831 189.103" stroke="black" stroke-width="3.09322" stroke-linecap="round"/>
<path d="M224.034 185.796C224.521 183.106 225.186 180.41 225.86 177.759C226.233 176.29 226.866 174.922 227.541 173.573" stroke="black" stroke-width="2" stroke-linecap="round"/>
<path d="M227.54 167.562C227.589 165.992 227.94 164.414 227.94 162.853" stroke="black" stroke-width="2" stroke-linecap="round"/>
<path d="M229.944 163.354C229.621 161.622 229.34 159.883 228.998 158.155C228.924 157.779 228.842 157.425 228.842 157.042" stroke="black" stroke-width="2" stroke-linecap="round"/>
<path d="M239.464 199.021C239.782 194.198 241.029 189.48 241.367 184.649C241.572 181.732 241.883 178.787 241.468 175.877" stroke="black" stroke-width="2" stroke-linecap="round"/>
<path d="M241.468 169.265C241.996 168.724 242.301 168.035 242.648 167.372C243.183 166.352 243.723 165.337 244.179 164.278C245.225 161.844 246.022 159.215 246.589 156.63C247.153 154.061 247.69 151.525 247.825 148.893C247.906 147.302 247.88 145.709 247.88 144.117" stroke="black" stroke-width="2" stroke-linecap="round"/>
<path d="M215.017 138.406C222.968 140.69 230.719 143.789 239.007 144.645C241.714 144.925 244.45 145.056 247.167 144.818C249.052 144.653 250.71 144.169 252.488 143.616" stroke="black" stroke-width="2" stroke-linecap="round"/>
<path d="M215.62 97.2278C213.548 99.9044 210.637 102.669 210.388 106.256C210.277 107.847 210.391 109.165 211.211 110.548C211.54 111.101 211.967 111.928 212.558 112.256C213.028 112.517 213.565 112.469 214.039 112.679C214.577 112.919 214.905 113.417 215.536 113.592C216.29 113.802 217.14 113.756 217.913 113.759C218.879 113.764 219.857 113.798 220.813 113.631C222.305 113.372 223.811 112.679 224.949 111.666C225.88 110.838 226.336 109.955 226.83 108.817C227.401 107.5 227.583 106.496 227.799 105.126C228.125 103.047 229.087 101.629 230.404 100.033C231.022 99.284 232.098 98.8182 232.352 97.9291" stroke="black" stroke-width="2" stroke-linecap="round"/>
<path d="M215.718 113.859C216.182 116.558 217.885 118.887 218.423 121.574" stroke="black" stroke-width="2" stroke-linecap="round"/>
<path d="M218.422 121.674C218.122 126.168 216.817 130.397 215.316 134.599" stroke="black" stroke-width="2" stroke-linecap="round"/>
<path d="M251.487 142.013C251.487 140.25 251.531 138.482 251.482 136.719C251.446 135.439 250.948 134.125 250.585 132.907C249.86 130.466 248.582 128.752 247.018 126.778C245.996 125.49 245.138 124.231 244.997 122.542C244.872 121.041 244.955 119.475 244.975 117.967C244.99 116.824 245.375 115.726 245.375 114.577C245.375 113.407 245.275 112.243 245.275 111.076C245.275 110.755 245.437 109.954 245.253 109.651C244.955 109.162 244.376 108.707 243.973 108.293C243.716 108.029 243.475 107.752 243.271 107.447" stroke="black" stroke-width="2" stroke-linecap="round"/>
<path d="M240.165 107.447C244.462 103.243 248.011 98.3663 250.975 93.1531C252.202 90.9942 253.099 88.6753 254.292 86.5071" stroke="black" stroke-width="2" stroke-linecap="round"/>
<path d="M236.057 96.3257C240.324 92.7081 243.458 88.2007 246.51 83.5792C248.011 81.307 249.05 78.8611 250.34 76.4768C251.011 75.2367 251.563 73.9918 252.088 72.6807" stroke="black" stroke-width="2" stroke-linecap="round"/>
<path d="M233.652 76.7886C232.563 75.0408 230.363 73.3773 228.286 72.9368C226.242 72.5032 224.007 73.5188 222.286 74.5287C220.449 75.6072 218.611 77.3245 217.532 79.1876C216.678 80.6629 217.059 83.1043 217.944 84.481C218.463 85.2877 219.383 86.0044 220.204 86.4849C220.812 86.8407 221.449 87.3397 222.18 87.4033C222.709 87.4492 223.079 87.2901 223.488 86.9524C224.431 86.1734 225.268 85.2286 226.037 84.2807C226.856 83.2725 227.657 82.2572 228.687 81.453C229.337 80.9455 229.937 80.2939 230.446 79.644C231.182 78.7038 232.11 77.93 232.951 77.0892" stroke="black" stroke-width="2" stroke-linecap="round"/>
<path d="M221.727 87.8096C219.632 89.3101 217.494 90.7429 215.315 92.1178C214.283 92.7689 213.384 93.2138 212.209 93.5204" stroke="black" stroke-width="2" stroke-linecap="round"/>
<path d="M232.85 78.6924C232.268 79.8902 232.223 81.1679 232.249 82.4774C232.301 85.2101 232.823 87.9669 233.089 90.6874C233.23 92.1296 233.532 93.8747 232.816 95.2127C232.307 96.1646 231.503 96.8155 230.646 97.4281" stroke="black" stroke-width="2" stroke-linecap="round"/>
<path d="M227.54 83.2009C226.727 86.0106 226.504 88.8839 226.682 91.7951C226.794 93.6214 227.205 95.4216 227.417 97.2388C227.589 98.7121 224.943 99.3547 223.833 99.6322" stroke="black" stroke-width="2" stroke-linecap="round"/>
<path d="M223.732 86.407C223.732 89.0416 223.965 91.7954 223.71 94.4222C223.53 96.2755 221.946 97.4694 220.426 98.2295" stroke="black" stroke-width="2" stroke-linecap="round"/>
<path d="M233.252 77.7905C234.29 80.8603 237.331 84.5244 235.279 87.843C235.025 88.2525 234.502 88.8954 234.56 89.4238C234.612 89.8912 234.97 90.3818 235.156 90.8153" stroke="black" stroke-width="2" stroke-linecap="round"/>
<path d="M208.372 110.137C208.372 112.224 208.343 114.313 208.372 116.4C208.391 117.748 208.418 119.107 209.137 120.296C209.659 121.16 211.514 121.163 212.424 121.527C213.824 122.087 215.043 123.045 216.548 123.045" stroke="black" stroke-width="2" stroke-linecap="round"/>
<path d="M235.123 112.155C234.782 116.409 233.738 123.35 229.668 125.792" stroke="black" stroke-width="2" stroke-linecap="round"/>
<path d="M243.305 118C242.131 117.925 238.422 117.684 238.24 116.052C238.178 115.495 237.905 115.105 237.461 114.883" stroke="black" stroke-width="2" stroke-linecap="round"/>
<path d="M214.865 142.936C217.966 144.303 221.22 145.603 224.216 144.105" stroke="black" stroke-width="2" stroke-linecap="round"/>
<path d="M239.798 148.391C240.847 148.586 241.859 148.684 242.915 148.78" stroke="black" stroke-width="2" stroke-linecap="round"/>
<path d="M251.004 192.937C251.091 191.49 252.626 185.109 252.626 185.906C252.626 187.192 253.184 187.431 254.249 188.07" stroke="black" stroke-width="2.04049" stroke-linecap="round"/>
<path d="M235.908 11.2966V19.3227" stroke="black" stroke-width="2.04049" stroke-linecap="round"/>
<path d="M243.6 191.255C246.411 191.205 249.207 190.975 252.02 190.975" stroke="black" stroke-width="3" stroke-linecap="round"/>
<path d="M520.031 47.2393C522.175 21.5038 549.551 12.9253 569.296 25.3578C575.076 28.9971 583.7 24.8188 589.642 23.6303C605.344 20.4899 613.99 28.6027 620.225 42.6327" stroke="black" stroke-width="3" stroke-linecap="round"/>
<path d="M535.003 65.6658C538.302 76.5769 551.477 78.8984 561.619 77.0544C566.419 76.1818 569.951 71.887 574.159 70.0165C582.78 66.1851 594.648 73.7274 604.103 73.7274" stroke="black" stroke-width="3" stroke-linecap="round"/>
<path d="M84.702 88.6993C75.5794 82.3642 64.604 82.5574 53.8631 82.941C49.1819 83.1082 50.2657 94.4576 44.9697 94.4576C36.6306 94.4576 27.9908 93.7318 19.6971 94.5216C13.4881 95.113 7.31364 102.22 2.93408 105.974" stroke="black" stroke-width="3" stroke-linecap="round"/>
<path d="M1.78174 119.794C3.07904 137.956 16.4242 142.814 32.6207 139.372C39.5565 137.898 44.2233 134.854 49.2558 129.903C51.0372 128.15 55.5634 121.24 58.2131 120.946C62.8193 120.434 68.1832 124.347 72.5449 125.552C78.5878 127.222 84.7725 129.992 91.0994 130.159C98.0571 130.342 102.2 121.724 105.431 116.339" stroke="black" stroke-width="3" stroke-linecap="round"/>
<path d="M180.292 21.9028C178.472 19.5924 176.707 18.0078 174.534 16.1445" stroke="black" stroke-width="3" stroke-linecap="round"/>
<path d="M356.495 36.8744C356.772 32.2557 357.81 31.2274 359.95 27.6611" stroke="black" stroke-width="3" stroke-linecap="round"/>
<path d="M532.698 140.524H566.096" stroke="black" stroke-width="3" stroke-linecap="round"/>
<path d="M90.4598 199.259C74.6254 199.51 58.9177 200.474 43.2417 202.714" stroke="black" stroke-width="3" stroke-linecap="round"/>
<path d="M561.489 171.619H586.826" stroke="black" stroke-width="3" stroke-linecap="round"/>
<path d="M363.405 277.395C365.398 274.886 372.439 263.636 376.971 265.902C380.489 267.661 382.413 270.445 386.769 270.613C394.133 270.896 397.889 268.58 404.103 272.308" stroke="black" stroke-width="3" stroke-linecap="round"/>
</svg>
