<svg width="20" height="21" viewBox="0 0 20 21" fill="none" xmlns="http://www.w3.org/2000/svg">
<path d="M9.9424 20.2484L12.7225 4.61284C15.3725 4.61284 16.2083 4.90342 16.329 6.0895C16.329 6.0895 18.1067 5.42667 19.0033 4.0805C15.5045 2.45925 11.9891 2.38613 11.9891 2.38613L9.93778 4.88461L9.9424 4.8843L7.89108 2.38574C7.89108 2.38574 4.37556 2.45894 0.877281 4.08018C1.77309 5.42636 3.55146 6.08918 3.55146 6.08918C3.67285 4.90303 4.50769 4.61245 7.13986 4.61057L9.9424 20.2484Z" fill="#2C2C2C"/>
<path d="M9.94124 1.66367C12.7695 1.64204 16.0067 2.10119 19.3207 3.54556C19.7636 2.74834 19.8775 2.396 19.8775 2.396C16.2548 0.96276 12.8623 0.472264 9.94084 0.459961C7.01958 0.472264 3.62717 0.962838 0.00499725 2.396C0.00499725 2.396 0.166589 2.83 0.561399 3.54556C3.87473 2.10119 7.11252 1.64204 9.94084 1.66367H9.94124Z" fill="#2C2C2C"/>
</svg>
