<svg width="29" height="29" viewBox="0 0 29 29" fill="none" xmlns="http://www.w3.org/2000/svg">
<path d="M14.7674 24.5912L17.5475 8.95561C20.1975 8.95561 21.0334 9.24619 21.1541 10.4323C21.1541 10.4323 22.9317 9.76945 23.8283 8.42327C20.3296 6.80202 16.8141 6.72891 16.8141 6.72891L14.7628 9.22739L14.7674 9.22707L12.7161 6.72852C12.7161 6.72852 9.20058 6.80171 5.7023 8.42296C6.59811 9.76913 8.37648 10.432 8.37648 10.432C8.49787 9.2458 9.33271 8.95522 11.9649 8.95334L14.7674 24.5912Z" fill="#E82127"/>
<path d="M14.7663 6.00644C17.5945 5.98481 20.8317 6.44396 24.1457 7.88834C24.5886 7.09111 24.7025 6.73878 24.7025 6.73878C21.0798 5.30553 17.6873 4.81504 14.7659 4.80273C11.8446 4.81504 8.45219 5.30561 4.83002 6.73878C4.83002 6.73878 4.99161 7.17277 5.38642 7.88834C8.69975 6.44396 11.9375 5.98481 14.7659 6.00644H14.7663Z" fill="#E82127"/>
</svg>
