<svg width="28" height="29" viewBox="0 0 28 29" fill="none" xmlns="http://www.w3.org/2000/svg">
<path d="M24.6951 13.1732L23.1472 11.3749C22.8513 11.0334 22.6123 10.3961 22.6123 9.94078V8.00587C22.6123 6.79939 21.6221 5.80918 20.4156 5.80918H18.4807C18.0368 5.80918 17.388 5.57016 17.0466 5.27423L15.2482 3.7263C14.4629 3.05477 13.1767 3.05477 12.38 3.7263L10.5931 5.28561C10.2516 5.57016 9.60285 5.80918 9.15896 5.80918H7.1899C5.98343 5.80918 4.99321 6.79939 4.99321 8.00587V9.95216C4.99321 10.3961 4.75419 11.0334 4.46964 11.3749L2.9331 13.1846C2.27295 13.9699 2.27295 15.2447 2.9331 16.0301L4.46964 17.8398C4.75419 18.1812 4.99321 18.8186 4.99321 19.2625V21.2088C4.99321 22.4153 5.98343 23.4055 7.1899 23.4055H9.15896C9.60285 23.4055 10.2516 23.6445 10.5931 23.9404L12.3914 25.4883C13.1767 26.1599 14.4629 26.1599 15.2596 25.4883L17.0579 23.9404C17.3994 23.6445 18.0368 23.4055 18.4921 23.4055H20.427C21.6334 23.4055 22.6237 22.4153 22.6237 21.2088V19.2739C22.6237 18.83 22.8627 18.1812 23.1586 17.8398L24.7065 16.0414C25.3667 15.2561 25.3667 13.9586 24.6951 13.1732ZM18.549 12.4562L13.0515 17.9536C12.8922 18.1129 12.6759 18.204 12.4483 18.204C12.2207 18.204 12.0044 18.1129 11.8451 17.9536L9.09066 15.1992C8.76059 14.8691 8.76059 14.3228 9.09066 13.9927C9.42074 13.6626 9.96706 13.6626 10.2971 13.9927L12.4483 16.1439L17.3425 11.2497C17.6726 10.9196 18.2189 10.9196 18.549 11.2497C18.879 11.5798 18.879 12.1261 18.549 12.4562Z" fill="#019F37"/>
</svg>
